<svg width="198" height="198" viewBox="0 0 198 198" fill="none" xmlns="http://www.w3.org/2000/svg">
<path d="M129.316 40.2017H68.2008C51.3167 40.2017 37.581 53.9414 37.581 70.8305V126.758C37.581 143.647 51.3167 157.387 68.2008 157.387H129.316C146.2 157.387 159.936 143.647 159.936 126.758V70.8305C159.936 53.9414 146.2 40.2017 129.316 40.2017ZM48.3827 70.8305C48.3827 59.901 57.2746 51.0065 68.2008 51.0065H129.316C140.242 51.0065 149.134 59.901 149.134 70.8305V126.758C149.134 137.688 140.242 146.582 129.316 146.582H68.2008C57.2746 146.582 48.3827 137.688 48.3827 126.758V70.8305Z" fill="white"/>
<path d="M98.7585 127.277C114.459 127.277 127.24 114.5 127.24 98.7874C127.24 83.075 114.466 70.2975 98.7585 70.2975C83.0507 70.2975 70.2768 83.075 70.2768 98.7874C70.2768 114.5 83.0507 127.277 98.7585 127.277ZM98.7585 81.1093C108.508 81.1093 116.438 89.0416 116.438 98.7944C116.438 108.547 108.508 116.479 98.7585 116.479C89.0086 116.479 81.0785 108.547 81.0785 98.7944C81.0785 89.0416 89.0086 81.1093 98.7585 81.1093Z" fill="white"/>
<path d="M129.876 74.9005C134.104 74.9005 137.55 71.4603 137.55 67.2242C137.55 62.9881 134.111 59.548 129.876 59.548C125.642 59.548 122.202 62.9881 122.202 67.2242C122.202 71.4603 125.642 74.9005 129.876 74.9005Z" fill="white"/>
</svg>
