<svg width="198" height="198" viewBox="0 0 198 198" fill="none" xmlns="http://www.w3.org/2000/svg">
<path d="M47.1025 65.6667C44.5007 63.251 43.2068 60.2608 43.2068 56.703C43.2068 53.1452 44.5076 50.0235 47.1025 47.6009C49.7044 45.1852 53.0535 43.9739 57.1569 43.9739C61.2603 43.9739 64.478 45.1852 67.0729 47.6009C69.6748 50.0166 70.9687 53.0552 70.9687 56.703C70.9687 60.3508 69.6678 63.251 67.0729 65.6667C64.4711 68.0823 61.1704 69.2936 57.1569 69.2936C53.1435 69.2936 49.7044 68.0823 47.1025 65.6667ZM68.7821 79.524V153.587H45.3865V79.524H68.7821Z" fill="#FEFFFC"/>
<path d="M146.664 86.8403C151.763 92.3777 154.31 99.9779 154.31 109.654V152.279H132.091V112.658C132.091 107.779 130.824 103.985 128.299 101.286C125.773 98.5865 122.369 97.2299 118.106 97.2299C113.843 97.2299 110.439 98.5796 107.913 101.286C105.387 103.985 104.121 107.779 104.121 112.658V152.279H81.7705V79.3163H104.121V88.993C106.384 85.7674 109.436 83.2203 113.269 81.3445C117.103 79.4687 121.414 78.5342 126.209 78.5342C134.748 78.5342 141.571 81.3029 146.664 86.8334V86.8403Z" fill="#FEFFFC"/>
</svg>
