<svg width="197" height="198" viewBox="0 0 197 198" fill="none" xmlns="http://www.w3.org/2000/svg">
<path d="M160.482 78.3821C159.707 70.8997 158.04 62.6282 151.902 58.2813C147.148 54.9104 140.899 54.7858 135.066 54.7927C122.735 54.7927 110.397 54.8135 98.0664 54.8204C86.206 54.8343 74.3456 54.8412 62.4851 54.855C57.5306 54.855 52.7145 54.4743 48.1129 56.6201C44.1617 58.4613 41.0686 61.9637 39.2072 65.8606C36.6261 71.2804 36.0864 77.42 35.775 83.4142C35.2007 94.3298 35.263 105.273 35.948 116.182C36.4532 124.142 37.7333 132.939 43.8849 138.013C49.3377 142.505 57.0324 142.727 64.1043 142.734C86.5519 142.754 109.006 142.775 131.461 142.789C134.34 142.796 137.343 142.741 140.277 142.422C146.048 141.799 151.549 140.145 155.258 135.867C159.001 131.555 159.963 125.554 160.531 119.871C161.915 106.083 161.901 92.1633 160.482 78.3821ZM85.085 118.12V79.4619L118.549 98.7874L85.085 118.12Z" fill="white"/>
</svg>
