<svg width="1272" height="723" viewBox="0 0 1272 723" fill="none" xmlns="http://www.w3.org/2000/svg">
<g opacity="0.6" clip-path="url(#clip0_331_169)">
<circle cx="630.849" cy="631.033" r="185.446" stroke="#2563EB" stroke-opacity="0.55" stroke-width="5.15129"/>
<circle cx="630.849" cy="631.033" r="298.775" stroke="#2563EB" stroke-opacity="0.45" stroke-width="5.15129"/>
<circle cx="630.849" cy="631.032" r="414.679" stroke="#2563EB" stroke-opacity="0.35" stroke-width="5.15129"/>
<circle cx="630.849" cy="631.033" r="522.856" stroke="#2563EB" stroke-opacity="0.2" stroke-width="5.15129"/>
<circle cx="636" cy="636.184" r="633.608" stroke="#2563EB" stroke-opacity="0.05" stroke-width="5.15129"/>
</g>
<g clip-path="url(#clip1_331_169)">
<g filter="url(#filter0_i_331_169)">
<rect x="103.294" y="387.285" width="320.412" height="654.588" rx="47.4118" fill="#1A1A1A"/>
</g>
<rect x="103.676" y="387.667" width="319.647" height="653.824" rx="47.0294" stroke="url(#paint0_linear_331_169)" stroke-opacity="0.5" stroke-width="0.764706"/>
<rect x="106.353" y="390.343" width="314.294" height="648.471" rx="44.3529" fill="black"/>
<g filter="url(#filter1_i_331_169)">
<path d="M101 492.508C101 492.08 101 491.866 101.083 491.702C101.157 491.558 101.274 491.441 101.418 491.368C101.581 491.285 101.795 491.285 102.224 491.285H103.294V514.226H102.224C101.795 514.226 101.581 514.226 101.418 514.142C101.274 514.069 101.157 513.952 101.083 513.808C101 513.645 101 513.431 101 513.002V492.508Z" fill="#333333"/>
</g>
<g filter="url(#filter2_i_331_169)">
<path d="M101 539.92C101 539.492 101 539.277 101.083 539.114C101.157 538.97 101.274 538.853 101.418 538.78C101.581 538.696 101.795 538.696 102.224 538.696H103.294V586.108H102.224C101.795 586.108 101.581 586.108 101.418 586.025C101.274 585.951 101.157 585.834 101.083 585.691C101 585.527 101 585.313 101 584.885V539.92Z" fill="#333333"/>
</g>
<g filter="url(#filter3_i_331_169)">
<path d="M101 601.096C101 600.668 101 600.454 101.083 600.29C101.157 600.146 101.274 600.029 101.418 599.956C101.581 599.873 101.795 599.873 102.224 599.873H103.294V647.284H102.224C101.795 647.284 101.581 647.284 101.418 647.201C101.274 647.128 101.157 647.011 101.083 646.867C101 646.703 101 646.489 101 646.061V601.096Z" fill="#333333"/>
</g>
<g filter="url(#filter4_i_331_169)">
<path d="M423.706 555.52H424.777C425.205 555.52 425.419 555.52 425.583 555.603C425.727 555.677 425.844 555.794 425.917 555.938C426 556.101 426 556.315 426 556.744V630.767C426 631.195 426 631.409 425.917 631.573C425.844 631.717 425.727 631.834 425.583 631.907C425.419 631.991 425.205 631.991 424.777 631.991H423.706V555.52Z" fill="#333333"/>
</g>
<rect x="119.854" y="404.272" width="286.765" height="620.941" rx="30.5882" fill="#F5F5F5"/>
<g filter="url(#filter5_i_331_169)">
<rect x="476.294" y="267.285" width="320.412" height="654.588" rx="47.4118" fill="#1A1A1A"/>
</g>
<rect x="476.676" y="267.667" width="319.647" height="653.824" rx="47.0294" stroke="url(#paint1_linear_331_169)" stroke-opacity="0.5" stroke-width="0.764706"/>
<rect x="479.353" y="270.343" width="314.294" height="648.471" rx="44.3529" fill="black"/>
<g filter="url(#filter6_i_331_169)">
<path d="M474 372.508C474 372.08 474 371.866 474.083 371.702C474.157 371.558 474.274 371.441 474.418 371.368C474.581 371.285 474.795 371.285 475.224 371.285H476.294V394.226H475.224C474.795 394.226 474.581 394.226 474.418 394.142C474.274 394.069 474.157 393.952 474.083 393.808C474 393.645 474 393.431 474 393.002V372.508Z" fill="#333333"/>
</g>
<g filter="url(#filter7_i_331_169)">
<path d="M474 419.92C474 419.492 474 419.277 474.083 419.114C474.157 418.97 474.274 418.853 474.418 418.78C474.581 418.696 474.795 418.696 475.224 418.696H476.294V466.108H475.224C474.795 466.108 474.581 466.108 474.418 466.025C474.274 465.951 474.157 465.834 474.083 465.691C474 465.527 474 465.313 474 464.885V419.92Z" fill="#333333"/>
</g>
<g filter="url(#filter8_i_331_169)">
<path d="M474 481.096C474 480.668 474 480.454 474.083 480.29C474.157 480.146 474.274 480.029 474.418 479.956C474.581 479.873 474.795 479.873 475.224 479.873H476.294V527.284H475.224C474.795 527.284 474.581 527.284 474.418 527.201C474.274 527.128 474.157 527.011 474.083 526.867C474 526.703 474 526.489 474 526.061V481.096Z" fill="#333333"/>
</g>
<g filter="url(#filter9_i_331_169)">
<path d="M796.706 435.52H797.777C798.205 435.52 798.419 435.52 798.583 435.603C798.727 435.677 798.844 435.794 798.917 435.938C799 436.101 799 436.315 799 436.744V510.767C799 511.195 799 511.409 798.917 511.573C798.844 511.717 798.727 511.834 798.583 511.907C798.419 511.991 798.205 511.991 797.777 511.991H796.706V435.52Z" fill="#333333"/>
</g>
<rect x="492.854" y="284.272" width="286.765" height="620.941" rx="30.5882" fill="#F5F5F5"/>
<g filter="url(#filter10_i_331_169)">
<rect x="849.294" y="318.285" width="320.412" height="654.588" rx="47.4118" fill="#1A1A1A"/>
</g>
<rect x="849.676" y="318.667" width="319.647" height="653.824" rx="47.0294" stroke="url(#paint2_linear_331_169)" stroke-opacity="0.5" stroke-width="0.764706"/>
<rect x="852.353" y="321.343" width="314.294" height="648.471" rx="44.3529" fill="black"/>
<g filter="url(#filter11_i_331_169)">
<path d="M847 423.508C847 423.08 847 422.866 847.083 422.702C847.157 422.558 847.274 422.441 847.418 422.368C847.581 422.285 847.795 422.285 848.224 422.285H849.294V445.226H848.224C847.795 445.226 847.581 445.226 847.418 445.142C847.274 445.069 847.157 444.952 847.083 444.808C847 444.645 847 444.431 847 444.002V423.508Z" fill="#333333"/>
</g>
<g filter="url(#filter12_i_331_169)">
<path d="M847 470.92C847 470.492 847 470.277 847.083 470.114C847.157 469.97 847.274 469.853 847.418 469.78C847.581 469.696 847.795 469.696 848.224 469.696H849.294V517.108H848.224C847.795 517.108 847.581 517.108 847.418 517.025C847.274 516.951 847.157 516.834 847.083 516.691C847 516.527 847 516.313 847 515.885V470.92Z" fill="#333333"/>
</g>
<g filter="url(#filter13_i_331_169)">
<path d="M847 532.096C847 531.668 847 531.454 847.083 531.29C847.157 531.146 847.274 531.029 847.418 530.956C847.581 530.873 847.795 530.873 848.224 530.873H849.294V578.284H848.224C847.795 578.284 847.581 578.284 847.418 578.201C847.274 578.128 847.157 578.011 847.083 577.867C847 577.703 847 577.489 847 577.061V532.096Z" fill="#333333"/>
</g>
<g filter="url(#filter14_i_331_169)">
<path d="M1169.71 486.52H1170.78C1171.2 486.52 1171.42 486.52 1171.58 486.603C1171.73 486.677 1171.84 486.794 1171.92 486.938C1172 487.101 1172 487.315 1172 487.744V561.767C1172 562.195 1172 562.409 1171.92 562.573C1171.84 562.717 1171.73 562.834 1171.58 562.907C1171.42 562.991 1171.2 562.991 1170.78 562.991H1169.71V486.52Z" fill="#333333"/>
</g>
<rect x="865.854" y="335.272" width="286.765" height="620.941" rx="30.5882" fill="#F5F5F5"/>
</g>
<g filter="url(#filter15_ddddd_331_169)">
<rect x="816.66" y="164.476" width="339" height="74" rx="16" transform="rotate(5.8567 816.66 164.476)" fill="white"/>
<rect x="817.107" y="165.024" width="338" height="73" rx="15.5" transform="rotate(5.8567 817.107 165.024)" stroke="black" stroke-opacity="0.1"/>
<path d="M854.494 190.473L841.988 189.189C837.452 188.724 834.538 191.109 834.071 195.66L832.489 211.074C832.014 215.7 834.389 218.567 838.925 219.033L851.431 220.316C856.04 220.789 858.873 218.456 859.348 213.83L860.93 198.416C861.397 193.865 859.103 190.946 854.494 190.473Z" fill="#FF6505"/>
<path d="M840.286 209.733L851.985 210.934C852.574 211.054 852.971 211.608 852.909 212.22C852.847 212.815 852.346 213.278 851.745 213.276L840.046 212.076C839.592 212.089 839.182 211.821 838.982 211.424C838.783 211.011 838.834 210.519 839.111 210.17C839.389 209.807 839.843 209.642 840.286 209.733ZM852.683 204.128C853.325 204.194 853.794 204.771 853.728 205.413C853.662 206.054 853.086 206.523 852.444 206.457L840.746 205.256C840.103 205.19 839.636 204.615 839.701 203.973C839.767 203.331 840.342 202.861 840.985 202.927L852.683 204.128ZM846.139 196.627C846.782 196.693 847.25 197.269 847.185 197.909C847.117 198.567 846.541 199.036 845.898 198.97L841.438 198.512C840.795 198.446 840.328 197.87 840.394 197.228C840.46 196.587 841.034 196.118 841.677 196.184L841.679 196.169L846.139 196.627Z" fill="#FFCBAA"/>
<path d="M882.04 195.447L882.168 194.194L889.591 194.955L889.463 196.209L886.441 195.899L885.536 204.714L884.171 204.574L885.076 195.759L882.04 195.447ZM888.51 201.571C888.726 199.469 890.382 198.147 892.429 198.357C894.462 198.565 895.815 200.196 895.599 202.299C895.383 204.402 893.728 205.724 891.695 205.515C889.647 205.305 888.295 203.674 888.51 201.571ZM889.833 201.707C889.688 203.128 890.492 204.209 891.815 204.345C893.124 204.479 894.144 203.585 894.29 202.164C894.436 200.744 893.618 199.661 892.309 199.526C890.986 199.391 889.979 200.287 889.833 201.707ZM896.385 208.909L897.397 199.049L898.581 199.171L898.552 200.406C899.108 199.52 900.077 199.127 901.163 199.238C903.113 199.438 904.175 201.025 903.96 203.114C903.748 205.189 902.445 206.632 900.426 206.425C899.34 206.313 898.482 205.761 898.122 204.88L897.695 209.044L896.385 208.909ZM898.37 202.597C898.227 203.99 898.932 205.075 900.269 205.212C901.606 205.35 902.503 204.428 902.646 203.036C902.79 201.629 902.099 200.545 900.762 200.408C899.425 200.27 898.516 201.176 898.37 202.597ZM914.263 200.779L915.558 200.912L914.86 207.722L913.69 207.602L913.656 206.557C913.193 207.228 912.238 207.622 911.235 207.519C909.648 207.357 908.866 206.193 909.038 204.522L909.472 200.288L910.781 200.422L910.391 204.224C910.241 205.686 910.811 206.308 911.814 206.411C913.011 206.533 913.744 205.835 913.894 204.372L914.263 200.779ZM916.446 210.967L917.458 201.107L918.641 201.228L918.613 202.464C919.169 201.578 920.138 201.185 921.224 201.296C923.174 201.496 924.235 203.083 924.021 205.172C923.808 207.247 922.506 208.69 920.487 208.482C919.401 208.371 918.542 207.819 918.182 206.937L917.755 211.101L916.446 210.967ZM918.431 204.655C918.288 206.047 918.993 207.133 920.33 207.27C921.667 207.407 922.563 206.486 922.706 205.093C922.851 203.687 922.16 202.602 920.823 202.465C919.486 202.328 918.576 203.234 918.431 204.655Z" fill="#171717"/>
<path d="M885.275 224.781L879.449 224.195L879.54 223.3L882.568 221.186C884.088 220.123 884.542 219.579 884.637 218.659C884.748 217.573 884.193 216.865 883.155 216.758C882.092 216.649 881.32 217.354 881.17 218.581L880.001 218.461C880.226 216.615 881.52 215.529 883.275 215.709C885.005 215.887 886.008 217.051 885.838 218.71C885.712 219.94 885.013 220.749 883.349 221.917L881.4 223.285L885.387 223.694L885.275 224.781ZM886.793 220.594C887.067 217.92 888.638 216.247 890.811 216.47C892.971 216.692 894.17 218.648 893.896 221.322C893.62 224.008 892.113 225.651 889.892 225.423C887.66 225.194 886.517 223.28 886.793 220.594ZM887.951 220.712C887.733 222.837 888.484 224.217 890 224.373C891.516 224.528 892.52 223.328 892.738 221.203C892.958 219.055 892.219 217.676 890.703 217.521C889.187 217.365 888.171 218.564 887.951 220.712ZM901.163 226.422L898.31 226.13L899.195 217.499L902 217.787C904.579 218.051 906.143 219.973 905.878 222.551C905.615 225.118 903.717 226.684 901.163 226.422ZM901.806 218.853L900.255 218.693L899.591 225.163L901.191 225.327C903.112 225.525 904.457 224.408 904.661 222.426C904.866 220.421 903.776 219.055 901.806 218.853ZM909.238 227.395C907.519 227.219 906.464 225.856 906.65 224.042C906.838 222.215 908.125 221.069 909.821 221.243C911.48 221.413 912.449 222.67 912.271 224.401L912.228 224.819L907.715 224.368C907.672 225.606 908.247 226.353 909.357 226.467C910.228 226.556 910.838 226.257 911.098 225.608L912.148 225.716C911.733 226.94 910.682 227.544 909.238 227.395ZM909.724 222.186C908.745 222.085 908.064 222.607 907.816 223.619L911.182 223.964C911.281 222.997 910.715 222.287 909.724 222.186ZM912.9 225.913L913.974 226.024C913.913 226.62 914.33 227.025 915.07 227.101C915.858 227.182 916.345 226.906 916.4 226.369C916.44 225.975 916.274 225.717 915.681 225.499L914.679 225.155C913.666 224.798 913.229 224.234 913.317 223.375C913.427 222.3 914.404 221.713 915.694 221.845C916.971 221.976 917.733 222.778 917.643 223.891L916.569 223.781C916.605 223.193 916.249 222.783 915.568 222.713C914.864 222.641 914.438 222.911 914.383 223.448C914.343 223.842 914.602 224.134 915.161 224.336L916.162 224.692C917.128 225.032 917.571 225.536 917.481 226.407C917.368 227.518 916.34 228.124 914.956 227.982C913.583 227.841 912.786 227.024 912.9 225.913ZM927.383 229.1L921.556 228.514L921.648 227.619L924.675 225.505C926.196 224.442 926.649 223.898 926.744 222.979C926.855 221.892 926.301 221.184 925.262 221.078C924.2 220.969 923.428 221.673 923.278 222.901L922.108 222.781C922.333 220.934 923.627 219.848 925.382 220.028C927.113 220.206 928.115 221.37 927.945 223.03C927.819 224.259 927.121 225.068 925.457 226.236L923.507 227.605L927.494 228.014L927.383 229.1ZM928.9 224.913C929.174 222.239 930.745 220.566 932.918 220.789C935.078 221.011 936.277 222.967 936.003 225.641C935.727 228.327 934.22 229.97 931.999 229.742C929.767 229.513 928.625 227.599 928.9 224.913ZM930.058 225.032C929.84 227.156 930.591 228.536 932.107 228.692C933.623 228.847 934.627 227.647 934.845 225.523C935.065 223.374 934.326 221.995 932.81 221.84C931.294 221.684 930.278 222.883 930.058 225.032ZM942.526 230.653L936.699 230.068L936.791 229.172L939.818 227.058C941.339 225.996 941.793 225.451 941.887 224.532C941.998 223.446 941.444 222.737 940.405 222.631C939.343 222.522 938.571 223.227 938.421 224.454L937.251 224.334C937.477 222.487 938.77 221.402 940.525 221.582C942.256 221.759 943.258 222.924 943.088 224.583C942.962 225.812 942.264 226.621 940.6 227.79L938.65 229.158L942.637 229.567L942.526 230.653ZM949.439 231.362L943.612 230.777L943.704 229.881L946.731 227.767C948.252 226.705 948.706 226.16 948.8 225.241C948.911 224.155 948.357 223.447 947.318 223.34C946.256 223.231 945.484 223.936 945.334 225.163L944.164 225.043C944.39 223.196 945.683 222.111 947.438 222.291C949.169 222.468 950.171 223.633 950.001 225.292C949.875 226.521 949.177 227.33 947.513 228.499L945.563 229.867L949.55 230.276L949.439 231.362ZM952.577 231.226C952.489 232.085 951.771 232.735 950.912 232.756L950.963 232.254C951.461 232.221 951.841 231.934 951.879 231.564C951.79 231.603 951.692 231.618 951.549 231.603C951.155 231.562 950.85 231.242 950.895 230.8C950.944 230.322 951.302 230.009 951.78 230.058C952.281 230.11 952.644 230.569 952.577 231.226Z" fill="#737373"/>
<rect x="960.191" y="225.44" width="4" height="4" rx="2" transform="rotate(5.8567 960.191 225.44)" fill="#737373"/>
<path d="M972.434 226.073L970.62 225.887L970.728 224.836L973.664 225.138L972.779 233.768L971.657 233.653L972.434 226.073ZM977.287 229.719L976.427 229.631L976.507 228.855L979.195 226.755L975.315 226.357L975.422 225.318L980.782 225.868L980.685 226.811L978.09 228.825C979.54 229.154 980.549 230.259 980.389 231.811C980.211 233.554 978.784 234.529 977.029 234.349C975.334 234.175 974.223 233.012 974.406 231.221L975.564 231.34C975.449 232.462 976.074 233.19 977.16 233.301C978.283 233.416 979.084 232.775 979.198 231.664C979.305 230.626 978.659 229.86 977.287 229.719ZM982.769 230.414C982.303 230.367 981.948 229.944 981.994 229.502C982.041 229.037 982.475 228.695 982.94 228.743C983.394 228.79 983.748 229.212 983.701 229.678C983.655 230.119 983.222 230.461 982.769 230.414ZM982.309 234.891C981.844 234.843 981.489 234.421 981.536 233.967C981.583 233.501 982.017 233.16 982.482 233.208C982.936 233.254 983.29 233.677 983.243 234.142C983.196 234.596 982.763 234.937 982.309 234.891ZM985.117 230.679C985.391 228.005 986.962 226.333 989.134 226.556C991.295 226.777 992.494 228.734 992.219 231.408C991.944 234.094 990.436 235.736 988.216 235.509C985.984 235.28 984.841 233.365 985.117 230.679ZM986.275 230.798C986.057 232.923 986.808 234.303 988.324 234.458C989.84 234.614 990.844 233.414 991.061 231.289C991.282 229.14 990.543 227.762 989.027 227.606C987.511 227.451 986.495 228.649 986.275 230.798ZM993.394 231.528C993.668 228.854 995.239 227.182 997.411 227.405C999.572 227.626 1000.77 229.583 1000.5 232.257C1000.22 234.943 998.713 236.585 996.493 236.358C994.261 236.129 993.118 234.214 993.394 231.528ZM994.551 231.647C994.334 233.772 995.085 235.152 996.601 235.307C998.117 235.463 999.12 234.263 999.338 232.138C999.559 229.989 998.82 228.611 997.304 228.455C995.787 228.3 994.772 229.498 994.551 231.647Z" fill="#737373"/>
<path d="M1034.78 213.959L1038.12 214.302L1038.46 210.96L1039.74 211.09L1039.4 214.433L1042.74 214.776L1042.61 216.049L1039.26 215.706L1038.92 219.065L1037.65 218.934L1037.99 215.576L1034.65 215.233L1034.78 213.959ZM1046.29 221.204L1044.74 221.044L1045.92 209.537L1050.26 209.982C1052.73 210.235 1054.06 211.691 1053.84 213.84C1053.67 215.431 1052.76 216.496 1051.28 216.81L1053.12 221.905L1051.39 221.727L1049.71 216.954L1046.76 216.652L1046.29 221.204ZM1047.33 211.097L1046.9 215.267L1049.71 215.555C1051.15 215.703 1052.06 215.008 1052.2 213.687C1052.33 212.35 1051.55 211.53 1050.12 211.383L1047.33 211.097ZM1054.54 225.572L1055.69 214.303L1057.05 214.442L1057.01 215.854C1057.65 214.842 1058.76 214.392 1060 214.52C1062.23 214.748 1063.44 216.561 1063.19 218.949C1062.95 221.32 1061.46 222.969 1059.15 222.733C1057.91 222.605 1056.93 221.974 1056.52 220.967L1056.03 225.726L1054.54 225.572ZM1056.81 218.358C1056.64 219.95 1057.45 221.19 1058.98 221.347C1060.5 221.504 1061.53 220.451 1061.69 218.859C1061.86 217.252 1061.07 216.013 1059.54 215.856C1058.01 215.699 1056.97 216.734 1056.81 218.358ZM1065.05 223.321C1064.43 223.258 1063.96 222.694 1064.02 222.09C1064.08 221.469 1064.66 221.013 1065.28 221.077C1065.89 221.139 1066.36 221.702 1066.3 222.323C1066.23 222.928 1065.66 223.383 1065.05 223.321ZM1071.56 223.989C1069.2 223.747 1067.83 222.094 1068.06 219.802L1069.61 219.961C1069.46 221.441 1070.27 222.441 1071.73 222.591C1073.29 222.751 1074.4 221.82 1074.56 220.26C1074.71 218.78 1073.89 217.585 1072.28 217.42C1071.31 217.321 1070.37 217.691 1069.78 218.289L1068.49 217.82L1070.5 212.058L1076.26 212.649L1076.11 214.082L1071.48 213.607L1070.4 216.584C1071.06 216.185 1071.85 216.024 1072.7 216.113C1075.04 216.353 1076.39 218.147 1076.16 220.359C1075.92 222.747 1074.04 224.243 1071.56 223.989ZM1077.7 218.62C1078.07 215.055 1080.16 212.825 1083.06 213.122C1085.94 213.417 1087.54 216.026 1087.17 219.591C1086.81 223.172 1084.8 225.363 1081.84 225.059C1078.86 224.754 1077.34 222.201 1077.7 218.62ZM1079.25 218.778C1078.96 221.611 1079.96 223.451 1081.98 223.658C1084 223.866 1085.34 222.266 1085.63 219.433C1085.92 216.568 1084.94 214.73 1082.92 214.522C1080.9 214.315 1079.54 215.913 1079.25 218.778ZM1088.74 219.752C1089.11 216.187 1091.2 213.957 1094.1 214.254C1096.98 214.549 1098.58 217.158 1098.21 220.723C1097.84 224.304 1095.83 226.495 1092.87 226.191C1089.9 225.886 1088.37 223.333 1088.74 219.752ZM1090.28 219.91C1089.99 222.743 1090.99 224.583 1093.02 224.79C1095.04 224.998 1096.38 223.398 1096.67 220.565C1096.96 217.7 1095.97 215.862 1093.95 215.654C1091.93 215.447 1090.58 217.045 1090.28 219.91ZM1099.93 226.899C1099.31 226.835 1098.84 226.272 1098.9 225.667C1098.96 225.047 1099.54 224.591 1100.16 224.655C1100.77 224.717 1101.24 225.28 1101.17 225.901C1101.11 226.506 1100.54 226.961 1099.93 226.899ZM1102.87 221.201C1103.23 217.636 1105.33 215.406 1108.23 215.703C1111.11 215.999 1112.7 218.607 1112.34 222.173C1111.97 225.754 1109.96 227.944 1107 227.64C1104.02 227.335 1102.5 224.782 1102.87 221.201ZM1104.41 221.359C1104.12 224.193 1105.12 226.032 1107.15 226.24C1109.17 226.447 1110.5 224.847 1110.8 222.014C1111.09 219.149 1110.1 217.311 1108.08 217.104C1106.06 216.896 1104.71 218.495 1104.41 221.359ZM1113.9 222.333C1114.27 218.768 1116.36 216.538 1119.26 216.835C1122.14 217.131 1123.74 219.739 1123.37 223.305C1123.01 226.886 1121 229.076 1118.04 228.772C1115.06 228.467 1113.54 225.914 1113.9 222.333ZM1115.45 222.492C1115.16 225.325 1116.16 227.164 1118.18 227.372C1120.2 227.579 1121.54 225.979 1121.83 223.146C1122.12 220.281 1121.14 218.443 1119.12 218.236C1117.1 218.028 1115.74 219.627 1115.45 222.492ZM1124.94 223.465C1125.31 219.9 1127.4 217.67 1130.3 217.967C1133.18 218.263 1134.78 220.871 1134.41 224.437C1134.04 228.018 1132.03 230.208 1129.07 229.904C1126.1 229.599 1124.57 227.046 1124.94 223.465ZM1126.48 223.624C1126.19 226.457 1127.2 228.296 1129.22 228.504C1131.24 228.711 1132.58 227.111 1132.87 224.278C1133.16 221.413 1132.18 219.575 1130.15 219.368C1128.13 219.16 1126.78 220.759 1126.48 223.624Z" fill="#262626"/>
<path d="M1084.3 237.017C1084.27 237.295 1084.48 237.537 1084.75 237.565L1087.53 237.85L1081.56 242.711C1081.34 242.886 1081.31 243.199 1081.49 243.413C1081.66 243.627 1081.97 243.659 1082.19 243.485L1088.16 238.624L1087.87 241.404C1087.85 241.678 1088.05 241.924 1088.32 241.953C1088.59 241.981 1088.84 241.78 1088.87 241.506L1089.28 237.527C1089.31 237.253 1089.1 237.007 1088.83 236.979L1084.85 236.57C1084.58 236.542 1084.33 236.743 1084.3 237.017Z" fill="#059669"/>
<path d="M1096.18 241.879L1098.69 242.136L1098.95 239.629L1099.9 239.727L1099.64 242.234L1102.15 242.491L1102.05 243.446L1099.55 243.189L1099.29 245.707L1098.33 245.61L1098.59 243.091L1096.08 242.834L1096.18 241.879ZM1103.63 238.468L1109.65 239.087L1109.54 240.161L1105.5 247.382L1104.28 247.257L1108.36 240.04L1103.52 239.543L1103.63 238.468ZM1110.21 247.395C1110.12 248.255 1109.41 248.905 1108.55 248.925L1108.6 248.424C1109.1 248.391 1109.48 248.104 1109.51 247.734C1109.43 247.773 1109.33 247.787 1109.18 247.772C1108.79 247.732 1108.49 247.411 1108.53 246.969C1108.58 246.492 1108.94 246.179 1109.42 246.228C1109.92 246.279 1110.28 246.739 1110.21 247.395ZM1117.34 248.585L1111.52 247.999L1111.61 247.104L1114.64 244.99C1116.16 243.928 1116.61 243.383 1116.71 242.464C1116.82 241.378 1116.26 240.669 1115.22 240.563C1114.16 240.454 1113.39 241.159 1113.24 242.386L1112.07 242.266C1112.3 240.419 1113.59 239.334 1115.34 239.514C1117.07 239.691 1118.08 240.856 1117.91 242.515C1117.78 243.744 1117.08 244.553 1115.42 245.722L1113.47 247.09L1117.46 247.499L1117.34 248.585ZM1126.63 242.891C1126.5 244.169 1125.5 244.995 1124.22 244.864C1122.96 244.734 1122.15 243.722 1122.28 242.444C1122.41 241.155 1123.41 240.329 1124.68 240.459C1125.95 240.59 1126.77 241.602 1126.63 242.891ZM1131.39 241.328L1123.95 249.275L1122.81 249.157L1130.24 241.211L1131.39 241.328ZM1125.71 242.797C1125.79 242.021 1125.34 241.431 1124.58 241.354C1123.84 241.278 1123.28 241.763 1123.2 242.539C1123.12 243.303 1123.58 243.892 1124.32 243.968C1125.06 244.044 1125.64 243.561 1125.71 242.797ZM1131.94 248.032C1131.81 249.309 1130.8 250.134 1129.53 250.004C1128.27 249.875 1127.44 248.861 1127.58 247.584C1127.71 246.295 1128.72 245.482 1129.99 245.611C1131.25 245.741 1132.08 246.743 1131.94 248.032ZM1131.01 247.937C1131.09 247.161 1130.65 246.572 1129.89 246.495C1129.15 246.419 1128.59 246.903 1128.51 247.679C1128.43 248.443 1128.89 249.033 1129.63 249.109C1130.37 249.185 1130.94 248.701 1131.01 247.937Z" fill="#059669"/>
</g>
<g filter="url(#filter16_ddddd_331_169)">
<rect x="973.385" y="158.691" width="135.418" height="52.2941" rx="16" transform="rotate(-6.6671 973.385 158.691)" fill="white"/>
<rect x="973.94" y="159.129" width="134.418" height="51.2941" rx="15.5" transform="rotate(-6.6671 973.94 159.129)" stroke="black" stroke-opacity="0.1"/>
<rect x="986.878" y="170.764" width="25.1773" height="25.1773" rx="12.5886" transform="rotate(-6.6671 986.878 170.764)" fill="#FFEFE7"/>
<path d="M1003.97 175.464C1004.32 175.422 1004.67 175.449 1005.01 175.543C1005.34 175.638 1005.66 175.797 1005.93 176.013C1006.2 176.23 1006.43 176.498 1006.6 176.802C1006.77 177.107 1006.88 177.443 1006.92 177.789L1007.46 182.403L1002.19 183.019L1001.65 178.406C1001.57 177.708 1001.77 177.007 1002.2 176.456C1002.64 175.905 1003.27 175.55 1003.97 175.468L1003.97 175.464Z" fill="#021E47"/>
<path d="M995.061 176.553L996.103 176.431C996.307 176.408 996.512 176.466 996.673 176.593C996.834 176.72 996.938 176.906 996.962 177.11L997.444 181.236L995.814 181.426C995.508 181.462 995.201 181.375 994.959 181.184C994.717 180.993 994.562 180.714 994.526 180.408L994.203 177.647C994.173 177.389 994.246 177.129 994.407 176.924C994.567 176.719 994.803 176.586 995.061 176.553Z" fill="#021E47"/>
<path d="M996.47 176.774L998.143 176.579C998.437 176.544 998.732 176.628 998.964 176.811C999.196 176.995 999.345 177.263 999.38 177.556L999.675 180.079C999.699 180.315 999.629 180.552 999.48 180.737C999.331 180.923 999.115 181.042 998.878 181.068L996.994 181.288L996.467 176.775L996.47 176.774Z" fill="#021E47"/>
<path d="M1001.17 186.155C1001.18 186.29 1001.16 186.425 1001.09 186.544C1001.03 186.663 1000.93 186.758 1000.81 186.817C998.972 187.675 996.907 187.904 994.931 187.469C994.798 187.44 994.678 187.369 994.587 187.268C994.497 187.167 994.44 187.04 994.424 186.905L994.239 185.317C994.194 184.938 994.224 184.554 994.328 184.187C994.431 183.82 994.607 183.477 994.843 183.177C995.079 182.878 995.373 182.628 995.706 182.441C996.039 182.255 996.405 182.137 996.784 182.092L997.753 181.979C998.517 181.889 999.286 182.105 999.89 182.581C1000.49 183.057 1000.89 183.754 1000.98 184.517L1001.17 186.151L1001.17 186.155Z" fill="#FF6505"/>
<path d="M1008.44 185.306C1008.45 185.44 1008.42 185.576 1008.36 185.695C1008.29 185.813 1008.19 185.909 1008.07 185.968C1006.24 186.826 1004.17 187.055 1002.2 186.62C1002.06 186.59 1001.94 186.52 1001.85 186.418C1001.76 186.317 1001.71 186.19 1001.69 186.055L1001.51 184.468C1001.46 184.089 1001.49 183.705 1001.59 183.337C1001.7 182.97 1001.87 182.627 1002.11 182.327C1002.35 182.028 1002.64 181.778 1002.97 181.592C1003.31 181.406 1003.67 181.287 1004.05 181.243L1005.02 181.13C1005.4 181.084 1005.78 181.114 1006.15 181.217C1006.52 181.32 1006.86 181.495 1007.16 181.73C1007.46 181.966 1007.71 182.259 1007.89 182.591C1008.08 182.923 1008.2 183.289 1008.24 183.668L1008.43 185.302L1008.44 185.306Z" fill="#FFC31A"/>
<path d="M995.201 180.812C995.538 180.773 995.78 180.467 995.74 180.129C995.701 179.792 995.395 179.55 995.058 179.59C994.72 179.629 994.478 179.935 994.518 180.272C994.557 180.61 994.863 180.852 995.201 180.812Z" fill="#FBCEBD"/>
<path d="M999.053 180.362C999.391 180.322 999.632 180.017 999.593 179.679C999.553 179.341 999.248 179.1 998.91 179.139C998.572 179.179 998.331 179.484 998.37 179.822C998.41 180.16 998.715 180.401 999.053 180.362Z" fill="#FBCEBD"/>
<path d="M996.132 181.744L998.389 181.48L998.497 182.407C998.532 182.705 998.447 183.004 998.261 183.239C998.075 183.474 997.803 183.626 997.506 183.661C997.208 183.696 996.909 183.611 996.673 183.425C996.438 183.239 996.287 182.967 996.252 182.669L996.143 181.743L996.132 181.744Z" fill="#FBCEBD"/>
<path d="M995.539 178.341L998.169 178.033C998.335 178.014 998.502 178.061 998.633 178.165C998.765 178.269 998.849 178.421 998.869 178.587L999.127 180.797C999.187 181.307 999.042 181.82 998.723 182.223C998.405 182.625 997.94 182.885 997.43 182.945C996.92 183.004 996.407 182.859 996.005 182.541C995.602 182.222 995.342 181.757 995.282 181.247L995.022 179.021C995.007 178.863 995.052 178.706 995.148 178.58C995.244 178.454 995.383 178.369 995.539 178.341Z" fill="#FBCEBD"/>
<path d="M1002.45 179.965C1002.79 179.925 1003.03 179.62 1002.99 179.282C1002.95 178.944 1002.64 178.703 1002.3 178.742C1001.97 178.782 1001.73 179.087 1001.77 179.425C1001.8 179.763 1002.11 180.004 1002.45 179.965Z" fill="#FBCEBD"/>
<path d="M1006.3 179.514C1006.64 179.475 1006.88 179.169 1006.84 178.831C1006.8 178.494 1006.5 178.252 1006.16 178.292C1005.82 178.331 1005.58 178.637 1005.62 178.974C1005.66 179.312 1005.96 179.554 1006.3 179.514Z" fill="#FBCEBD"/>
<path d="M1003.39 180.896L1005.63 180.633L1005.74 181.56C1005.78 181.857 1005.69 182.157 1005.5 182.392C1005.32 182.627 1005.05 182.779 1004.75 182.813C1004.45 182.848 1004.15 182.764 1003.92 182.579C1003.68 182.394 1003.53 182.123 1003.5 181.826L1003.39 180.896Z" fill="#FBCEBD"/>
<path d="M1004.21 177.958C1004.04 178.295 1003.76 178.574 1003.43 178.757C1003.1 178.941 1002.72 179.023 1002.34 178.992L1002.5 180.387C1002.56 180.897 1002.82 181.362 1003.22 181.681C1003.63 181.999 1004.14 182.144 1004.65 182.085C1004.9 182.058 1005.15 181.98 1005.37 181.857C1005.6 181.734 1005.8 181.568 1005.95 181.368C1006.11 181.168 1006.23 180.939 1006.3 180.693C1006.37 180.447 1006.39 180.189 1006.37 179.935L1006.2 178.544C1006.1 178.577 1005.99 178.601 1005.89 178.615C1005.58 178.65 1005.26 178.608 1004.97 178.493C1004.68 178.379 1004.42 178.195 1004.21 177.958Z" fill="#FBCEBD"/>
<path d="M1004.21 177.958C1004.06 177.786 1003.93 177.586 1003.85 177.369L1002.79 177.493C1002.62 177.512 1002.47 177.597 1002.37 177.728C1002.26 177.86 1002.22 178.027 1002.24 178.193L1002.33 179.008C1002.71 179.039 1003.1 178.956 1003.43 178.769C1003.77 178.582 1004.04 178.3 1004.21 177.958Z" fill="#021E47"/>
<path d="M1005.42 177.185L1004.41 177.303C1004.38 177.531 1004.32 177.753 1004.21 177.958C1004.42 178.197 1004.68 178.382 1004.98 178.497C1005.27 178.611 1005.59 178.651 1005.91 178.613C1006.01 178.599 1006.12 178.575 1006.22 178.541L1006.13 177.722C1006.1 177.558 1006.02 177.409 1005.88 177.309C1005.75 177.208 1005.58 177.164 1005.42 177.185Z" fill="#021E47"/>
<path d="M1004.21 177.958C1004.32 177.753 1004.38 177.531 1004.41 177.303L1003.85 177.369C1003.93 177.586 1004.06 177.786 1004.21 177.958Z" fill="#021E47"/>
<path d="M1027.44 171.627L1026.49 171.738L1026.39 170.855L1028.17 168.782L1024.94 169.16L1024.8 167.958L1029.73 167.381L1029.86 168.466L1028.17 170.431C1029.39 170.526 1030.42 171.29 1030.58 172.661C1030.76 174.257 1029.64 175.412 1028.06 175.596C1026.54 175.774 1025.25 174.976 1025.06 173.296L1026.4 173.139C1026.5 174.033 1027.11 174.478 1027.94 174.381C1028.79 174.282 1029.29 173.663 1029.19 172.802C1029.1 172.015 1028.52 171.5 1027.44 171.627ZM1031.19 171.167C1030.91 168.753 1032.02 166.964 1034 166.731C1035.99 166.499 1037.49 167.984 1037.77 170.397C1038.06 172.8 1037.01 174.55 1034.95 174.791C1032.88 175.033 1031.47 173.57 1031.19 171.167ZM1032.53 171.01C1032.74 172.807 1033.58 173.733 1034.81 173.59C1036.04 173.446 1036.64 172.351 1036.43 170.554C1036.22 168.714 1035.38 167.789 1034.15 167.933C1032.92 168.076 1032.32 169.171 1032.53 171.01ZM1043.08 173.7L1041.67 173.866L1043.57 165.764L1044.96 165.602L1048.68 173.047L1047.24 173.214L1046.4 171.491L1043.5 171.83L1043.08 173.7ZM1044.36 168.022L1043.77 170.634L1045.88 170.388L1044.69 167.983C1044.6 167.789 1044.5 167.563 1044.46 167.406C1044.44 167.559 1044.41 167.8 1044.36 168.022ZM1049.74 175.39L1048.85 167.702L1050.05 167.562L1050.22 168.349C1050.47 167.706 1051.12 167.274 1051.92 167.181C1053.4 167.008 1054.5 167.968 1054.7 169.616C1054.89 171.253 1054.13 172.549 1052.57 172.732C1051.78 172.824 1051.07 172.595 1050.67 172.102L1051.04 175.238L1049.74 175.39ZM1050.46 170.176C1050.57 171.122 1051.23 171.702 1052.12 171.598C1053.04 171.491 1053.5 170.768 1053.39 169.833C1053.29 168.897 1052.66 168.29 1051.75 168.397C1050.86 168.502 1050.35 169.229 1050.46 170.176ZM1058.72 166.526L1058.86 167.728L1058.38 167.783C1057.45 167.893 1056.92 168.461 1057.04 169.482L1057.34 172.034L1056.04 172.185L1055.43 166.943L1056.65 166.8L1056.82 167.557C1056.98 167.01 1057.44 166.601 1058.14 166.519C1058.32 166.497 1058.5 166.498 1058.72 166.526ZM1060.13 165.316C1059.68 165.368 1059.29 165.058 1059.24 164.622C1059.19 164.186 1059.5 163.805 1059.95 163.753C1060.37 163.703 1060.76 164.002 1060.81 164.438C1060.86 164.874 1060.55 165.266 1060.13 165.316ZM1060.22 171.697L1059.6 166.445L1060.9 166.293L1061.51 171.546L1060.22 171.697ZM1064.16 171.236L1062.88 171.387L1061.95 163.475L1063.24 163.325L1064.16 171.236ZM1073.6 170.123L1068.21 170.763L1068.09 169.743L1070.38 167.297C1071.33 166.281 1071.62 165.73 1071.53 164.985C1071.43 164.103 1070.89 163.659 1070.07 163.755C1069.22 163.854 1068.76 164.512 1068.87 165.513L1067.52 165.67C1067.33 163.968 1068.28 162.735 1069.93 162.543C1071.59 162.349 1072.73 163.174 1072.92 164.748C1073.04 165.833 1072.54 166.721 1071.48 167.869L1070.22 169.235L1073.45 168.857L1073.6 170.123ZM1073.99 166.165C1073.7 163.751 1074.81 161.962 1076.8 161.729C1078.79 161.497 1080.29 162.981 1080.57 165.395C1080.85 167.798 1079.8 169.548 1077.74 169.789C1075.68 170.03 1074.27 168.568 1073.99 166.165ZM1075.33 166.008C1075.54 167.805 1076.38 168.731 1077.6 168.588C1078.83 168.444 1079.44 167.349 1079.23 165.552C1079.01 163.712 1078.17 162.787 1076.94 162.931C1075.72 163.074 1075.11 164.168 1075.33 166.008ZM1087.36 168.514L1081.97 169.155L1081.85 168.134L1084.14 165.689C1085.09 164.673 1085.38 164.121 1085.29 163.377C1085.19 162.495 1084.65 162.051 1083.83 162.146C1082.98 162.246 1082.52 162.903 1082.63 163.904L1081.28 164.062C1081.09 162.36 1082.04 161.127 1083.69 160.934C1085.35 160.74 1086.49 161.566 1086.68 163.14C1086.8 164.224 1086.3 165.113 1085.24 166.261L1083.98 167.627L1087.21 167.249L1087.36 168.514ZM1093.93 166.259L1092.98 166.369L1093.16 167.847L1091.87 167.998L1091.7 166.52L1087.75 166.981L1087.61 165.79L1090.54 160.274L1092.25 160.074L1092.84 165.178L1093.79 165.068L1093.93 166.259ZM1089.06 165.621L1091.56 165.329L1091.13 161.692L1089.06 165.621Z" fill="#404040"/>
<path d="M1029.85 190.645L1027.68 190.9L1026.9 184.31L1029.05 184.059C1031.02 183.829 1032.5 185.004 1032.73 186.973C1032.96 188.933 1031.8 190.417 1029.85 190.645ZM1029.08 184.887L1027.89 185.026L1028.47 189.966L1029.69 189.823C1031.16 189.651 1031.98 188.595 1031.8 187.082C1031.62 185.551 1030.58 184.711 1029.08 184.887ZM1033.88 184.584C1033.57 184.621 1033.29 184.395 1033.25 184.085C1033.21 183.766 1033.44 183.491 1033.75 183.454C1034.06 183.418 1034.34 183.634 1034.38 183.953C1034.42 184.263 1034.19 184.548 1033.88 184.584ZM1034.11 190.148L1033.59 185.691L1034.44 185.591L1034.96 190.048L1034.11 190.148ZM1035.69 188.651L1036.51 188.555C1036.57 189.01 1036.94 189.243 1037.51 189.177C1038.11 189.107 1038.43 188.82 1038.38 188.41C1038.34 188.109 1038.18 187.944 1037.7 187.88L1036.89 187.789C1036.08 187.691 1035.66 187.342 1035.58 186.686C1035.49 185.866 1036.12 185.265 1037.1 185.15C1038.08 185.036 1038.78 185.509 1038.9 186.354L1038.08 186.45C1038.01 186.006 1037.67 185.758 1037.15 185.819C1036.62 185.882 1036.34 186.154 1036.39 186.564C1036.43 186.865 1036.67 187.04 1037.12 187.098L1037.92 187.198C1038.7 187.292 1039.12 187.594 1039.19 188.26C1039.29 189.107 1038.63 189.73 1037.57 189.854C1036.52 189.976 1035.79 189.498 1035.69 188.651ZM1042.23 189.309C1040.92 189.463 1039.9 188.62 1039.74 187.235C1039.58 185.84 1040.35 184.771 1041.64 184.62C1042.91 184.471 1043.84 185.249 1044 186.571L1044.03 186.89L1040.59 187.302C1040.76 188.233 1041.32 188.695 1042.16 188.596C1042.83 188.518 1043.23 188.194 1043.32 187.666L1044.12 187.573C1044.02 188.555 1043.33 189.18 1042.23 189.309ZM1041.73 185.34C1040.98 185.427 1040.56 185.929 1040.54 186.726L1043.11 186.425C1043.03 185.687 1042.48 185.251 1041.73 185.34ZM1046.45 188.705L1045.59 188.805L1045.15 185.069L1044.28 185.171L1044.19 184.451L1045.07 184.349L1044.91 182.954L1045.76 182.854L1045.93 184.248L1046.8 184.146L1046.88 184.866L1046.01 184.968L1046.45 188.705ZM1050.65 183.696L1051.5 183.597L1052.02 188.054L1051.25 188.144L1051.08 187.48C1050.88 187.974 1050.33 188.363 1049.67 188.439C1048.63 188.561 1047.97 187.927 1047.84 186.833L1047.51 184.063L1048.37 183.962L1048.66 186.451C1048.77 187.408 1049.23 187.724 1049.88 187.648C1050.67 187.556 1051.04 187.005 1050.92 186.048L1050.65 183.696ZM1052.77 182.377C1052.45 182.414 1052.17 182.188 1052.14 181.878C1052.1 181.559 1052.32 181.284 1052.64 181.246C1052.94 181.211 1053.23 181.427 1053.27 181.746C1053.3 182.055 1053.07 182.342 1052.77 182.377ZM1052.09 190.096L1052.15 189.305C1052.33 189.33 1052.43 189.337 1052.56 189.321C1052.97 189.273 1053.11 189.016 1053.05 188.515L1052.46 183.484L1053.32 183.384L1053.92 188.497C1054.02 189.39 1053.6 190.004 1052.73 190.105C1052.5 190.132 1052.36 190.14 1052.09 190.096ZM1057.65 182.878L1058.49 182.779L1059.01 187.236L1058.25 187.326L1058.08 186.662C1057.88 187.157 1057.32 187.545 1056.67 187.622C1055.63 187.743 1054.96 187.109 1054.83 186.016L1054.51 183.245L1055.37 183.145L1055.66 185.633C1055.77 186.59 1056.22 186.907 1056.88 186.83C1057.66 186.738 1058.03 186.187 1057.92 185.23L1057.65 182.878ZM1060.03 181.528C1059.72 181.564 1059.44 181.339 1059.4 181.029C1059.36 180.71 1059.59 180.434 1059.9 180.398C1060.21 180.361 1060.49 180.578 1060.53 180.897C1060.57 181.206 1060.34 181.491 1060.03 181.528ZM1060.26 187.091L1059.74 182.634L1060.59 182.534L1061.11 186.991L1060.26 187.091Z" fill="#737373"/>
</g>
<g filter="url(#filter17_ddddd_331_169)">
<rect x="27.9971" y="219.515" width="339" height="163" rx="16" transform="rotate(-12.0143 27.9971 219.515)" fill="white"/>
<rect x="28.5902" y="219.9" width="338" height="162" rx="15.5" transform="rotate(-12.0143 28.5902 219.9)" stroke="black" stroke-opacity="0.1"/>
<rect x="46.9771" y="231.834" width="42.0015" height="44.0013" rx="21.0007" transform="rotate(-12.0143 46.9771 231.834)" fill="#FFEFE7"/>
<g clip-path="url(#clip2_331_169)">
<path d="M82.9813 256.889L78.283 256.431L74.1783 258.762L69.48 258.304L65.3753 260.635L61.2136 241.073L73.5378 238.451L79.9053 242.43L82.9813 256.889Z" fill="#FF6505"/>
<path d="M74.6362 243.614L79.918 242.49L73.5378 238.451L74.6362 243.614Z" fill="#BCB9EE"/>
<path d="M76.7277 245.4L67.0972 247.449L67.2473 248.155L76.8778 246.106L76.7277 245.4Z" fill="white"/>
<path d="M77.3556 248.352L67.7251 250.4L67.8753 251.106L77.5058 249.058L77.3556 248.352Z" fill="white"/>
</g>
<path d="M112.099 231.135L109.236 231.744L110.095 235.782L108.561 236.108L106.153 224.794L110.551 223.858C112.773 223.385 114.507 224.537 114.97 226.712C115.419 228.825 114.306 230.665 112.099 231.135ZM110.578 225.291L107.98 225.844L108.943 230.367L111.478 229.827C112.996 229.504 113.651 228.433 113.355 227.04C113.051 225.616 112.018 224.985 110.578 225.291ZM121.082 233.64C118.829 234.119 116.933 232.821 116.427 230.443C115.917 228.048 117.082 226.066 119.304 225.594C121.48 225.131 123.224 226.33 123.707 228.599L123.823 229.147L117.911 230.421C118.363 232.01 119.398 232.722 120.854 232.412C121.996 232.169 122.647 231.54 122.711 230.61L124.089 230.317C124.063 232.04 122.976 233.237 121.082 233.64ZM119.568 226.83C118.284 227.103 117.634 228.043 117.732 229.429L122.146 228.49C121.876 227.222 120.867 226.553 119.568 226.83ZM127.693 232.036L126.222 232.35L124.594 224.697L125.908 224.417L126.262 225.389C126.5 224.586 127.207 223.912 128.287 223.682C129.477 223.429 130.448 223.844 131.043 224.715C131.199 223.684 131.996 222.893 133.186 222.639C134.938 222.266 136.236 223.135 136.612 224.904L137.678 229.912L136.238 230.218L135.249 225.57C134.992 224.365 134.173 223.82 133.14 224.04C132.029 224.276 131.46 225.215 131.72 226.436L132.685 230.974L131.23 231.284L130.238 226.62C129.981 225.415 129.184 224.898 128.151 225.118C127.04 225.354 126.468 226.277 126.727 227.498L127.693 232.036ZM141.047 229.195L139.717 229.478L137.266 217.96L138.737 217.647L139.839 222.827C140.127 221.718 141.046 220.966 142.298 220.7C144.489 220.234 146.17 221.675 146.673 224.039C147.166 226.355 146.142 228.307 143.92 228.78C142.715 229.036 141.584 228.72 140.86 227.778L141.047 229.195ZM140.384 225.311C140.724 226.908 141.868 227.826 143.37 227.506C144.873 227.186 145.525 225.87 145.189 224.289C144.856 222.724 143.724 221.787 142.221 222.107C140.719 222.427 140.051 223.747 140.384 225.311ZM151.378 227.192C149.735 227.542 148.568 226.825 148.272 225.432C147.972 224.024 148.834 222.924 150.604 222.4L152.974 221.7L152.927 221.481C152.654 220.197 151.791 219.907 150.758 220.127C149.522 220.39 148.934 221.087 149.131 222.011L147.847 222.284C147.508 220.687 148.599 219.359 150.571 218.94C152.464 218.537 153.961 219.265 154.4 221.331L155.423 226.135L154.171 226.402L153.751 225.199C153.547 226.158 152.615 226.929 151.378 227.192ZM151.558 225.96C152.951 225.663 153.602 224.576 153.296 223.136L153.209 222.729L151.287 223.302C150.014 223.704 149.589 224.318 149.749 225.069C149.922 225.883 150.603 226.163 151.558 225.96ZM157.271 229.324L157.014 228.119L158 227.91C158.704 227.76 159.244 227.53 159.398 226.483L159.507 225.691L154.709 218.288L156.258 217.958L159.793 223.651L160.75 217.002L162.268 216.679L160.648 226.823C160.411 228.247 159.761 228.958 158.587 229.208C158.102 229.311 157.682 229.335 157.271 229.324ZM166.997 223.868C165.354 224.218 164.187 223.501 163.891 222.108C163.591 220.7 164.453 219.6 166.223 219.076L168.593 218.376L168.546 218.157C168.273 216.873 167.41 216.583 166.377 216.803C165.141 217.066 164.553 217.763 164.749 218.687L163.466 218.96C163.126 217.363 164.218 216.035 166.19 215.616C168.083 215.213 169.58 215.941 170.019 218.007L171.042 222.811L169.79 223.078L169.37 221.875C169.166 222.834 168.234 223.605 166.997 223.868ZM167.177 222.636C168.57 222.339 169.221 221.252 168.915 219.812L168.828 219.405L166.906 219.978C165.633 220.38 165.208 220.994 165.368 221.745C165.541 222.559 166.222 222.839 167.177 222.636ZM175.819 213.73L176.105 215.076L175.448 215.216C174.055 215.512 173.374 216.54 173.688 218.011L174.55 222.065L173.079 222.378L171.454 214.741L172.831 214.448L173.171 215.586C173.314 214.721 173.968 214.026 175.017 213.802C175.283 213.746 175.508 213.731 175.819 213.73ZM180.813 220.928C179.17 221.278 178.003 220.561 177.707 219.168C177.407 217.76 178.269 216.66 180.038 216.136L182.409 215.436L182.362 215.216C182.089 213.933 181.225 213.643 180.193 213.862C178.956 214.125 178.369 214.823 178.565 215.746L177.282 216.02C176.942 214.423 178.034 213.095 180.005 212.675C181.899 212.272 183.395 213.001 183.835 215.067L184.857 219.871L183.605 220.137L183.186 218.934C182.981 219.894 182.049 220.665 180.813 220.928ZM180.992 219.696C182.385 219.399 183.037 218.312 182.731 216.872L182.644 216.465L180.721 217.038C179.449 217.44 179.023 218.054 179.183 218.805C179.356 219.619 180.038 219.899 180.992 219.696ZM188.366 219.124L186.895 219.437L185.266 211.785L186.596 211.502L187.003 212.642C187.301 211.662 188.162 210.94 189.241 210.71C191.26 210.28 192.447 211.32 192.863 213.276L193.859 217.955L192.388 218.268L191.462 213.918C191.132 212.369 190.279 211.896 189.152 212.136C187.775 212.429 187.187 213.584 187.503 215.071L188.366 219.124ZM198.01 208.435C197.597 206.494 198.882 204.847 201.214 204.35C203.374 203.891 205.023 204.799 205.564 206.729L204.015 207.059C203.697 205.948 202.759 205.461 201.491 205.731C200.067 206.034 199.297 206.95 199.534 208.061C199.727 208.969 200.36 209.407 201.477 209.431L203.433 209.473C205.369 209.502 206.522 210.304 206.861 211.9C207.294 213.935 205.99 215.57 203.58 216.083C201.28 216.572 199.489 215.694 198.983 213.773L200.548 213.44C200.809 214.513 201.863 215.009 203.287 214.706C204.789 214.386 205.594 213.479 205.354 212.352C205.164 211.46 204.559 211 203.426 210.979L201.474 210.953C199.537 210.923 198.356 210.062 198.01 208.435ZM212.996 209.662L210.132 210.272L210.992 214.309L209.458 214.636L207.05 203.321L211.447 202.385C213.67 201.912 215.404 203.064 215.866 205.24C216.316 207.352 215.203 209.193 212.996 209.662ZM211.475 203.819L208.877 204.372L209.839 208.894L212.374 208.355C213.892 208.032 214.548 206.96 214.251 205.567C213.948 204.143 212.914 203.512 211.475 203.819ZM222.777 207.581L219.913 208.19L220.773 212.228L219.239 212.554L216.831 201.239L221.228 200.304C223.451 199.831 225.185 200.983 225.647 203.158C226.097 205.271 224.984 207.111 222.777 207.581ZM221.255 201.737L218.658 202.29L219.62 206.813L222.155 206.273C223.673 205.95 224.329 204.878 224.032 203.486C223.729 202.062 222.695 201.431 221.255 201.737ZM114.22 257.396L112.89 257.68L110.439 246.161L111.91 245.848L113.012 251.028C113.3 249.92 114.22 249.168 115.472 248.902C117.663 248.436 119.344 249.877 119.846 252.24C120.339 254.557 119.315 256.508 117.093 256.981C115.888 257.238 114.758 256.922 114.034 255.98L114.22 257.396ZM113.558 253.513C113.897 255.11 115.041 256.028 116.544 255.708C118.046 255.388 118.698 254.071 118.362 252.491C118.029 250.926 116.897 249.989 115.395 250.309C113.892 250.628 113.225 251.948 113.558 253.513ZM125.751 246.943L127.207 246.633L128.835 254.286L127.521 254.566L127.118 253.441C126.85 254.332 125.949 255.097 124.822 255.337C123.038 255.716 121.78 254.724 121.38 252.846L120.368 248.089L121.839 247.776L122.748 252.048C123.098 253.691 123.935 254.167 125.062 253.928C126.408 253.641 126.96 252.624 126.611 250.981L125.751 246.943ZM132.472 253.512L131.001 253.825L128.55 242.307L130.021 241.994L132.472 253.512ZM136.915 252.763C135.272 253.113 134.105 252.396 133.809 251.003C133.509 249.594 134.371 248.495 136.141 247.971L138.511 247.27L138.464 247.051C138.191 245.768 137.328 245.477 136.295 245.697C135.059 245.96 134.471 246.658 134.668 247.581L133.384 247.854C133.045 246.258 134.136 244.93 136.108 244.51C138.002 244.107 139.498 244.836 139.938 246.901L140.96 251.706L139.708 251.972L139.288 250.769C139.084 251.729 138.152 252.5 136.915 252.763ZM137.095 251.531C138.488 251.234 139.14 250.147 138.833 248.707L138.747 248.3L136.824 248.873C135.551 249.274 135.126 249.888 135.286 250.64C135.459 251.453 136.14 251.734 137.095 251.531ZM144.468 250.959L142.997 251.272L141.369 243.62L142.699 243.337L143.105 244.477C143.404 243.497 144.264 242.774 145.344 242.545C147.363 242.115 148.549 243.155 148.965 245.111L149.961 249.79L148.49 250.103L147.564 245.753C147.235 244.203 146.382 243.731 145.255 243.97C143.878 244.263 143.289 245.419 143.606 246.906L144.468 250.959ZM154.857 245.46L154.737 244.897L156.224 244.58L156.344 245.144C156.581 246.255 157.361 246.923 158.613 246.657C159.896 246.384 160.293 245.481 160.043 244.308L158.314 236.185L159.848 235.859L161.59 244.044C162.023 246.078 160.935 247.651 158.916 248.081C156.756 248.54 155.274 247.416 154.857 245.46ZM166.839 246.395C165.196 246.744 164.029 246.027 163.733 244.635C163.433 243.226 164.295 242.127 166.065 241.603L168.435 240.902L168.388 240.683C168.115 239.4 167.252 239.109 166.219 239.329C164.982 239.592 164.395 240.29 164.591 241.213L163.308 241.486C162.968 239.89 164.06 238.562 166.032 238.142C167.925 237.739 169.422 238.467 169.861 240.533L170.884 245.338L169.632 245.604L169.212 244.401C169.007 245.361 168.075 246.131 166.839 246.395ZM167.018 245.162C168.411 244.866 169.063 243.778 168.757 242.339L168.67 241.932L166.747 242.504C165.475 242.906 165.05 243.52 165.209 244.271C165.383 245.085 166.064 245.365 167.018 245.162ZM174.392 244.591L172.921 244.904L171.292 237.251L172.622 236.968L173.029 238.109C173.327 237.129 174.188 236.406 175.268 236.176C177.286 235.747 178.473 236.787 178.889 238.743L179.885 243.422L178.414 243.735L177.488 239.384C177.158 237.835 176.305 237.362 175.178 237.602C173.801 237.895 173.213 239.051 173.529 240.538L174.392 244.591ZM185.583 234.21L187.039 233.9L188.667 241.553L187.353 241.833L186.95 240.708C186.682 241.599 185.781 242.363 184.654 242.603C182.87 242.983 181.612 241.991 181.212 240.113L180.2 235.356L181.671 235.043L182.58 239.315C182.93 240.958 183.767 241.434 184.894 241.194C186.24 240.908 186.792 239.891 186.443 238.248L185.583 234.21ZM193.08 240.81C191.436 241.16 190.27 240.443 189.973 239.05C189.673 237.642 190.535 236.542 192.305 236.018L194.675 235.318L194.629 235.099C194.355 233.815 193.492 233.525 192.459 233.745C191.223 234.008 190.635 234.705 190.832 235.629L189.548 235.902C189.209 234.305 190.3 232.977 192.272 232.557C194.166 232.154 195.662 232.883 196.102 234.949L197.124 239.753L195.872 240.02L195.453 238.817C195.248 239.776 194.316 240.547 193.08 240.81ZM193.259 239.578C194.652 239.281 195.304 238.194 194.997 236.754L194.911 236.347L192.988 236.92C191.716 237.322 191.29 237.936 191.45 238.687C191.623 239.501 192.304 239.781 193.259 239.578ZM201.901 230.672L202.188 232.018L201.53 232.158C200.138 232.454 199.457 233.482 199.77 234.953L200.632 239.006L199.161 239.32L197.536 231.683L198.913 231.389L199.254 232.528C199.397 231.663 200.05 230.968 201.099 230.744C201.365 230.688 201.591 230.672 201.901 230.672ZM203.628 228.472C203.096 228.585 202.564 228.241 202.451 227.708C202.335 227.161 202.683 226.645 203.215 226.532C203.747 226.418 204.275 226.748 204.392 227.295C204.505 227.828 204.16 228.359 203.628 228.472ZM204.923 238.093L203.294 230.441L204.765 230.128L206.394 237.78L204.923 238.093Z" fill="black"/>
<rect x="288.568" y="180.419" width="60" height="24" rx="12" transform="rotate(-12.0143 288.568 180.419)" fill="#FFF7ED"/>
<path d="M310.178 193.189L304.453 194.419L304.265 193.539L306.498 190.598C307.06 189.857 307.424 189.28 307.59 188.869C307.754 188.449 307.788 188.013 307.692 187.559C307.578 187.027 307.345 186.643 306.992 186.407C306.638 186.163 306.206 186.096 305.698 186.204C305.174 186.316 304.789 186.586 304.545 187.014C304.307 187.432 304.248 187.944 304.369 188.548L303.218 188.793C303.041 187.882 303.16 187.096 303.575 186.435C303.991 185.774 304.629 185.352 305.49 185.169C306.343 184.987 307.071 185.086 307.675 185.464C308.285 185.833 308.677 186.425 308.85 187.239C308.977 187.833 308.932 188.411 308.716 188.972C308.508 189.532 308.091 190.226 307.466 191.054L306.03 192.955L309.951 192.12L310.178 193.189ZM317.417 185.661L318.509 185.428L319.73 191.168L318.744 191.378L318.442 190.534C318.343 190.874 318.137 191.176 317.825 191.438C317.511 191.693 317.143 191.866 316.72 191.956C316.063 192.096 315.506 191.997 315.05 191.661C314.594 191.324 314.29 190.8 314.139 190.088L313.38 186.52L314.483 186.285L315.165 189.489C315.406 190.624 315.985 191.094 316.9 190.899C317.409 190.791 317.762 190.548 317.96 190.171C318.157 189.793 318.191 189.299 318.062 188.689L317.417 185.661ZM322.434 190.592L321.331 190.827L320.109 185.088L321.107 184.875L321.412 185.731C321.522 185.364 321.726 185.055 322.024 184.803C322.328 184.542 322.684 184.368 323.091 184.281C323.826 184.125 324.423 184.219 324.881 184.563C325.337 184.9 325.645 185.447 325.807 186.206L326.554 189.716L325.451 189.95L324.756 186.688C324.525 185.6 323.947 185.154 323.024 185.351C322.515 185.459 322.152 185.712 321.934 186.11C321.716 186.508 321.667 186.989 321.787 187.553L322.434 190.592ZM327.582 181.853C327.471 182.024 327.314 182.131 327.111 182.175C326.907 182.218 326.72 182.184 326.549 182.073C326.377 181.955 326.27 181.797 326.228 181.602C326.185 181.398 326.219 181.211 326.329 181.04C326.44 180.87 326.598 180.762 326.801 180.719C327.004 180.676 327.192 180.71 327.362 180.821C327.533 180.931 327.64 181.089 327.684 181.292C327.725 181.488 327.691 181.675 327.582 181.853ZM328.082 189.39L326.861 183.651L327.964 183.416L329.185 189.156L328.082 189.39ZM332.407 188.47L331.303 188.705L330.279 183.893L329.153 184.132L328.955 183.205L330.082 182.965L329.7 181.17L330.803 180.935L331.185 182.731L332.312 182.491L332.509 183.418L331.383 183.658L332.407 188.47ZM333.699 186.453L334.756 186.228C334.817 186.518 334.968 186.727 335.208 186.856C335.455 186.975 335.762 186.995 336.129 186.917C336.513 186.836 336.794 186.698 336.974 186.504C337.161 186.309 337.227 186.078 337.17 185.812C337.127 185.609 337.034 185.461 336.892 185.369C336.748 185.268 336.523 185.214 336.219 185.205L335.16 185.185C334.106 185.156 333.492 184.73 333.318 183.909C333.206 183.384 333.316 182.923 333.649 182.525C333.981 182.127 334.468 181.86 335.11 181.724C335.736 181.59 336.272 181.648 336.717 181.897C337.169 182.136 337.461 182.528 337.593 183.072L336.537 183.297C336.459 183.011 336.309 182.806 336.087 182.681C335.862 182.549 335.586 182.518 335.257 182.588C334.913 182.661 334.663 182.792 334.506 182.981C334.349 183.162 334.298 183.385 334.355 183.651C334.436 184.034 334.774 184.237 335.367 184.258L336.429 184.289C336.955 184.3 337.361 184.402 337.647 184.594C337.933 184.787 338.122 185.095 338.212 185.517C338.326 186.057 338.208 186.536 337.855 186.955C337.501 187.366 336.979 187.644 336.291 187.791C335.618 187.934 335.047 187.884 334.578 187.64C334.109 187.396 333.816 187.001 333.699 186.453Z" fill="#F97316"/>
<path d="M125.281 281.58L124.103 281.831L124.528 283.83L123.241 284.104L122.816 282.105L117.694 283.194L117.441 282.003L120.682 274.3L122.421 273.93L123.849 280.639L125.027 280.389L125.281 281.58ZM118.892 281.694L122.562 280.913L121.437 275.628L118.892 281.694ZM132.569 282.119L131.254 282.398L129.147 272.498L130.462 272.218L135.643 279.818L137.281 270.767L138.623 270.482L140.73 280.382L139.415 280.662L138.582 276.745C138.189 274.897 138.06 274.223 137.979 273.51L136.608 281.259L135.349 281.527L130.961 275.032C131.131 275.497 131.374 276.504 131.668 277.887L132.569 282.119ZM144.809 279.685C143.372 279.991 142.351 279.364 142.091 278.146C141.829 276.913 142.583 275.951 144.132 275.493L146.206 274.88L146.165 274.688C145.926 273.565 145.17 273.311 144.267 273.503C143.185 273.733 142.671 274.344 142.843 275.152L141.72 275.391C141.422 273.994 142.377 272.832 144.103 272.464C145.76 272.112 147.069 272.749 147.454 274.557L148.348 278.761L147.253 278.994L146.886 277.941C146.707 278.781 145.891 279.455 144.809 279.685ZM144.966 278.607C146.185 278.348 146.755 277.396 146.487 276.136L146.412 275.78L144.729 276.282C143.616 276.633 143.244 277.17 143.383 277.828C143.535 278.54 144.131 278.785 144.966 278.607ZM152.528 270.814L152.779 271.992L152.204 272.114C150.985 272.374 150.389 273.274 150.663 274.561L151.418 278.107L150.131 278.381L148.709 271.699L149.914 271.442L150.212 272.438C150.337 271.682 150.909 271.073 151.826 270.878C152.059 270.828 152.257 270.815 152.528 270.814ZM157.856 276.909C155.884 277.329 154.225 276.193 153.782 274.112C153.337 272.017 154.356 270.282 156.3 269.869C158.204 269.463 159.73 270.513 160.152 272.498L160.254 272.978L155.081 274.093C155.477 275.483 156.383 276.106 157.656 275.835C158.656 275.622 159.225 275.072 159.281 274.258L160.486 274.002C160.464 275.509 159.513 276.556 157.856 276.909ZM156.531 270.95C155.408 271.189 154.838 272.012 154.925 273.224L158.786 272.403C158.55 271.293 157.667 270.708 156.531 270.95ZM164.176 275.392L162.889 275.666L161.694 270.052L160.38 270.332L160.149 269.25L161.464 268.97L161.018 266.875L162.305 266.601L162.751 268.696L164.066 268.416L164.296 269.498L162.981 269.778L164.176 275.392ZM176.768 272.698L170.089 274.134L169.87 273.107L172.475 269.675C173.783 267.951 174.092 267.184 173.868 266.13C173.602 264.884 172.733 264.296 171.542 264.549C170.323 264.809 169.718 265.868 169.991 267.284L168.649 267.57C168.238 265.439 169.286 263.77 171.299 263.342C173.284 262.919 174.814 263.853 175.219 265.756C175.52 267.167 175.034 268.315 173.605 270.208L171.93 272.425L176.503 271.452L176.768 272.698ZM176.954 267.506C176.302 264.438 177.447 262.019 179.939 261.488C182.418 260.961 184.449 262.704 185.102 265.772C185.758 268.853 184.672 271.216 182.125 271.758C179.564 272.303 177.61 270.587 176.954 267.506ZM178.283 267.223C178.801 269.66 180.129 270.924 181.868 270.553C183.607 270.183 184.292 268.492 183.774 266.054C183.249 263.589 181.935 262.323 180.196 262.693C178.457 263.064 177.758 264.758 178.283 267.223ZM194.139 269.001L187.46 270.437L187.241 269.41L189.846 265.979C191.154 264.255 191.463 263.488 191.238 262.433C190.973 261.187 190.104 260.599 188.912 260.853C187.694 261.112 187.089 262.171 187.362 263.587L186.02 263.873C185.609 261.742 186.657 260.073 188.67 259.645C190.655 259.222 192.185 260.156 192.59 262.06C192.89 263.47 192.405 264.618 190.975 266.511L189.3 268.728L193.874 267.755L194.139 269.001ZM202.069 267.314L195.389 268.749L195.171 267.722L197.776 264.291C199.084 262.567 199.393 261.8 199.168 260.746C198.903 259.499 198.034 258.912 196.842 259.165C195.624 259.424 195.019 260.484 195.292 261.9L193.95 262.185C193.539 260.054 194.587 258.386 196.6 257.957C198.585 257.535 200.115 258.469 200.52 260.372C200.82 261.782 200.335 262.931 198.905 264.824L197.23 267.041L201.804 266.067L202.069 267.314Z" fill="#737373"/>
<rect x="207.056" y="258.599" width="4" height="4" rx="2" transform="rotate(-12.0143 207.056 258.599)" fill="#525252"/>
<path d="M221.322 263.402C219.885 263.708 218.864 263.081 218.604 261.862C218.342 260.63 219.096 259.668 220.645 259.209L222.719 258.596L222.678 258.405C222.439 257.282 221.683 257.027 220.78 257.22C219.698 257.45 219.184 258.06 219.356 258.868L218.233 259.107C217.936 257.711 218.891 256.548 220.616 256.181C222.273 255.829 223.582 256.466 223.967 258.273L224.861 262.477L223.766 262.71L223.399 261.658C223.22 262.498 222.404 263.172 221.322 263.402ZM221.479 262.324C222.698 262.065 223.269 261.113 223 259.853L222.925 259.497L221.242 259.998C220.129 260.35 219.757 260.887 219.897 261.544C220.048 262.256 220.644 262.502 221.479 262.324ZM228.427 261.719L227.14 261.993L225.945 256.378L224.63 256.658L224.4 255.576L225.715 255.296L225.269 253.201L226.556 252.927L227.002 255.023L228.316 254.743L228.547 255.825L227.232 256.104L228.427 261.719ZM234.42 251.354L232.338 251.797L232.082 250.592L235.45 249.875L237.557 259.775L236.27 260.049L234.42 251.354ZM246.007 257.963L239.327 259.399L239.109 258.372L241.714 254.94C243.021 253.216 243.331 252.449 243.106 251.395C242.841 250.149 241.972 249.561 240.78 249.814C239.561 250.074 238.957 251.133 239.229 252.549L237.888 252.835C237.477 250.703 238.525 249.035 240.537 248.606C242.523 248.184 244.053 249.118 244.458 251.021C244.758 252.432 244.273 253.58 242.843 255.473L241.168 257.69L245.742 256.717L246.007 257.963ZM247.543 252.455C247.009 252.568 246.463 252.226 246.356 251.72C246.242 251.186 246.601 250.651 247.135 250.538C247.655 250.427 248.2 250.769 248.314 251.303C248.422 251.809 248.063 252.344 247.543 252.455ZM248.635 257.59C248.101 257.703 247.556 257.361 247.446 256.841C247.332 256.307 247.691 255.772 248.225 255.659C248.745 255.548 249.29 255.89 249.404 256.424C249.514 256.944 249.156 257.479 248.635 257.59ZM251.336 247.754L249.254 248.197L248.998 246.992L252.367 246.275L254.474 256.175L253.186 256.449L251.336 247.754ZM259.594 255.258C257.567 255.689 255.978 254.681 255.559 252.71L256.887 252.427C257.158 253.7 258.105 254.315 259.364 254.047C260.706 253.761 261.38 252.687 261.094 251.345C260.823 250.072 259.814 249.299 258.431 249.593C257.596 249.771 256.913 250.331 256.581 250.989L255.383 250.943L255.507 245.607L260.464 244.552L260.726 245.784L256.742 246.632L256.644 249.401C257.08 248.893 257.693 248.548 258.433 248.391C260.446 247.962 262.047 249.096 262.452 250.999C262.889 253.053 261.73 254.803 259.594 255.258ZM271.641 248.829L269.135 249.362L269.887 252.895L268.545 253.181L266.438 243.28L270.286 242.462C272.23 242.048 273.747 243.056 274.152 244.959C274.546 246.808 273.572 248.418 271.641 248.829ZM270.309 243.716L268.036 244.2L268.879 248.157L271.097 247.685C272.425 247.402 272.998 246.465 272.739 245.246C272.474 244 271.569 243.448 270.309 243.716ZM278.418 251.08L277.103 251.359L274.996 241.459L276.311 241.179L281.492 248.779L283.13 239.728L284.472 239.442L286.579 249.343L285.265 249.623L284.431 245.706C284.038 243.858 283.909 243.184 283.828 242.471L282.457 250.22L281.198 250.488L276.81 243.993C276.98 244.458 277.223 245.465 277.517 246.848L278.418 251.08Z" fill="#737373"/>
<path d="M121.401 302.898L364.947 251.068" stroke="#E5E5E5"/>
<path d="M125.605 321.842L125.38 320.786L131.636 319.455L131.861 320.511L129.314 321.053L130.895 328.483L129.744 328.728L128.163 321.298L125.605 321.842ZM132.494 325.136C132.117 323.364 133.12 321.85 134.845 321.483C136.559 321.118 138.091 322.093 138.468 323.865C138.846 325.637 137.843 327.151 136.129 327.516C134.404 327.883 132.871 326.909 132.494 325.136ZM133.609 324.899C133.864 326.096 134.804 326.767 135.919 326.53C137.023 326.295 137.62 325.297 137.365 324.1C137.11 322.903 136.158 322.234 135.055 322.469C133.94 322.706 133.355 323.702 133.609 324.899ZM141.864 326.148L140.761 326.383L139.737 321.571L138.61 321.811L138.413 320.883L139.539 320.644L139.157 318.848L140.261 318.613L140.643 320.409L141.769 320.169L141.967 321.096L140.84 321.336L141.864 326.148ZM145.621 325.496C144.388 325.758 143.513 325.221 143.291 324.176C143.066 323.12 143.713 322.295 145.04 321.902L146.817 321.377L146.782 321.212C146.578 320.25 145.93 320.032 145.155 320.197C144.228 320.394 143.787 320.917 143.935 321.61L142.972 321.815C142.718 320.617 143.536 319.621 145.015 319.307C146.435 319.004 147.558 319.551 147.887 321.1L148.654 324.703L147.715 324.903L147.4 324.001C147.247 324.721 146.548 325.299 145.621 325.496ZM145.755 324.572C146.8 324.349 147.289 323.534 147.059 322.454L146.994 322.149L145.552 322.578C144.598 322.88 144.279 323.34 144.398 323.904C144.528 324.514 145.039 324.724 145.755 324.572ZM151.309 324.138L150.206 324.373L148.367 315.735L149.47 315.5L151.309 324.138Z" fill="#262626"/>
<path d="M133.157 344.359L131.256 344.764L129.407 336.079L132.764 335.364C134.877 334.915 136.291 335.681 136.674 337.477C136.913 338.604 136.602 339.504 135.744 340.202L138.005 343.328L135.927 343.77L133.977 341.007L132.51 341.32L133.157 344.359ZM131.668 337.364L132.156 339.653L133.599 339.346C134.433 339.168 134.824 338.643 134.666 337.904C134.512 337.176 133.969 336.875 133.124 337.054L131.668 337.364ZM139.713 345.909L137.865 337.223L139.566 336.861L139.813 337.557C140.026 336.947 140.688 336.426 141.522 336.249C143.153 335.901 144.534 336.798 144.936 338.687C145.331 340.542 144.606 342.095 142.857 342.467C142.048 342.639 141.231 342.494 140.796 342.12L141.521 345.524L139.713 345.909ZM140.308 339.77C140.496 340.651 141.207 341.113 142.052 340.933C142.909 340.75 143.322 340.037 143.137 339.168C142.952 338.3 142.285 337.816 141.428 337.999C140.583 338.178 140.121 338.89 140.308 339.77ZM147.425 341.483C146.826 341.61 146.243 341.231 146.12 340.656C145.996 340.069 146.374 339.485 146.973 339.358C147.548 339.236 148.155 339.61 148.28 340.196C148.402 340.771 148 341.36 147.425 341.483ZM152.609 340.367C150.742 340.764 149.244 339.832 148.861 338.036L150.739 337.636C150.914 338.458 151.5 338.849 152.298 338.679C153.155 338.496 153.566 337.832 153.371 336.917C153.181 336.025 152.576 335.602 151.719 335.784C151.132 335.909 150.669 336.326 150.548 336.794L148.741 336.835L148.841 331.943L153.559 330.939L153.934 332.699L150.577 333.414L150.506 334.754C150.834 334.451 151.291 334.231 151.819 334.119C153.509 333.759 154.92 334.624 155.295 336.385C155.709 338.333 154.616 339.94 152.609 340.367ZM155.76 335.034C155.188 332.347 156.321 330.179 158.587 329.697C160.852 329.215 162.77 330.733 163.342 333.421C163.914 336.109 162.885 338.192 160.502 338.699C158.12 339.207 156.332 337.722 155.76 335.034ZM157.638 334.635C158.035 336.501 158.939 337.29 160.148 337.033C161.357 336.775 161.861 335.687 161.464 333.82C161.054 331.896 160.15 331.106 158.941 331.364C157.732 331.621 157.228 332.71 157.638 334.635ZM164.184 333.241C163.612 330.554 164.746 328.386 167.011 327.904C169.276 327.422 171.194 328.94 171.766 331.628C172.338 334.316 171.31 336.399 168.927 336.907C166.544 337.414 164.756 335.929 164.184 333.241ZM166.062 332.842C166.459 334.708 167.363 335.497 168.572 335.24C169.781 334.983 170.286 333.894 169.888 332.028C169.479 330.103 168.575 329.314 167.366 329.571C166.157 329.828 165.653 330.917 166.062 332.842ZM174.59 335.701C173.992 335.829 173.408 335.45 173.286 334.875C173.161 334.288 173.539 333.704 174.138 333.577C174.713 333.454 175.32 333.828 175.445 334.415C175.568 334.99 175.165 335.579 174.59 335.701ZM175.509 330.831C174.937 328.144 176.07 325.976 178.336 325.494C180.601 325.012 182.519 326.53 183.091 329.218C183.663 331.906 182.634 333.989 180.252 334.496C177.869 335.004 176.081 333.519 175.509 330.831ZM177.387 330.432C177.784 332.298 178.688 333.087 179.897 332.83C181.106 332.573 181.61 331.484 181.213 329.617C180.803 327.693 179.899 326.903 178.69 327.161C177.481 327.418 176.977 328.507 177.387 330.432ZM183.933 329.039C183.361 326.351 184.495 324.183 186.76 323.701C189.026 323.219 190.944 324.737 191.516 327.425C192.088 330.113 191.059 332.197 188.676 332.704C186.293 333.211 184.505 331.726 183.933 329.039ZM185.811 328.639C186.208 330.505 187.113 331.294 188.321 331.037C189.53 330.78 190.035 329.691 189.638 327.825C189.228 325.9 188.324 325.111 187.115 325.368C185.906 325.625 185.402 326.714 185.811 328.639ZM192.358 327.246C191.786 324.558 192.92 322.39 195.185 321.908C197.45 321.426 199.368 322.944 199.94 325.632C200.512 328.32 199.483 330.404 197.101 330.911C194.718 331.418 192.93 329.933 192.358 327.246ZM194.236 326.846C194.633 328.712 195.537 329.501 196.746 329.244C197.955 328.987 198.459 327.898 198.062 326.032C197.653 324.107 196.748 323.318 195.54 323.575C194.331 323.832 193.826 324.921 194.236 326.846Z" fill="#262626"/>
<rect x="301.654" y="283.449" width="68.6468" height="23" rx="10" transform="rotate(-12.01 301.654 283.449)" fill="#FF6505"/>
<path d="M332.758 291.146L331.884 287.038L333.662 286.659C334.03 286.581 334.36 286.574 334.652 286.639C334.943 286.7 335.184 286.826 335.377 287.018C335.569 287.211 335.698 287.461 335.764 287.77C335.828 288.076 335.812 288.355 335.715 288.609C335.618 288.863 335.449 289.079 335.209 289.256C334.967 289.43 334.663 289.556 334.295 289.635L333.045 289.901L333.377 289.382L333.709 290.943L332.758 291.146ZM333.399 289.488L332.88 289.126L334.078 288.871C334.371 288.809 334.577 288.7 334.695 288.544C334.813 288.388 334.848 288.198 334.801 287.975C334.753 287.748 334.643 287.588 334.472 287.493C334.3 287.399 334.068 287.383 333.774 287.445L332.577 287.7L332.904 287.158L333.399 289.488ZM338.843 289.851L338.711 289.235L338.624 289.113L338.389 288.009C338.348 287.814 338.255 287.674 338.11 287.59C337.969 287.506 337.776 287.49 337.529 287.542C337.361 287.578 337.201 287.641 337.048 287.73C336.898 287.815 336.776 287.915 336.682 288.029L336.217 287.459C336.364 287.301 336.551 287.163 336.779 287.045C337.008 286.927 337.247 286.841 337.498 286.788C337.979 286.686 338.377 286.72 338.691 286.89C339.005 287.06 339.214 287.386 339.316 287.867L339.699 289.669L338.843 289.851ZM337.89 290.103C337.644 290.155 337.424 290.159 337.23 290.115C337.036 290.066 336.876 289.979 336.751 289.854C336.627 289.73 336.545 289.577 336.507 289.397C336.467 289.21 336.477 289.036 336.537 288.876C336.601 288.715 336.724 288.574 336.907 288.453C337.089 288.329 337.341 288.232 337.662 288.164L338.501 287.986L338.614 288.52L337.875 288.677C337.66 288.723 337.519 288.789 337.451 288.877C337.388 288.964 337.368 289.061 337.39 289.166C337.415 289.284 337.48 289.368 337.585 289.419C337.693 289.466 337.827 289.472 337.988 289.438C338.14 289.406 338.27 289.341 338.376 289.245C338.482 289.145 338.547 289.019 338.572 288.866L338.802 289.259C338.779 289.476 338.691 289.657 338.537 289.8C338.384 289.943 338.168 290.044 337.89 290.103ZM341.122 290.605C340.958 290.64 340.79 290.65 340.619 290.633C340.447 290.616 340.301 290.574 340.18 290.505L340.376 289.783C340.46 289.83 340.551 289.862 340.648 289.878C340.75 289.893 340.845 289.891 340.935 289.872C341.064 289.845 341.159 289.792 341.22 289.713C341.286 289.638 341.335 289.523 341.368 289.369L341.45 288.947L341.499 288.832L342.053 285.868L342.933 285.681L342.22 289.335C342.172 289.611 342.097 289.836 341.995 290.009C341.897 290.181 341.773 290.314 341.625 290.406C341.481 290.498 341.314 290.565 341.122 290.605ZM341.436 289.428L339.329 286.447L340.274 286.246L341.928 288.655L341.436 289.428Z" fill="white"/>
</g>
<g filter="url(#filter18_ddddd_331_169)">
<rect x="249.128" y="117" width="332.682" height="80" rx="16" transform="rotate(7.11406 249.128 117)" fill="white"/>
<rect x="249.562" y="117.558" width="331.682" height="79" rx="15.5" transform="rotate(7.11406 249.562 117.558)" stroke="black" stroke-opacity="0.1"/>
<path d="M287.107 142.646C292.25 143.173 294.985 146.438 294.471 151.45L294.465 151.506L288.146 150.857C285.205 150.561 282.585 152.639 282.285 155.505C281.986 158.378 284.132 160.956 287.078 161.263L293.403 161.912L293.356 162.368C292.841 167.381 289.498 170.033 284.356 169.505L270.876 168.122C265.732 167.594 262.998 164.318 263.512 159.305L264.633 148.388C265.147 143.375 268.489 140.735 273.633 141.263L287.107 142.646ZM280.35 147.795L271.929 146.931C271.303 146.869 270.744 147.312 270.679 147.924C270.613 148.538 271.071 149.09 271.701 149.158L280.132 150.023C280.763 150.085 281.323 149.637 281.384 149.021C281.444 148.406 280.981 147.857 280.35 147.795Z" fill="#FF6505"/>
<path opacity="0.4" d="M280.418 157.025C280.522 160.622 282.132 163.31 284.27 163.463L291.544 164.21C292.431 164.301 293.275 163.151 293.431 161.638L294.4 152.194C294.553 150.685 293.962 149.384 293.075 149.29L285.63 148.526C283.204 148.29 280.902 151.442 280.482 155.575C280.432 156.059 280.411 156.546 280.418 157.025Z" fill="#FF6505"/>
<path d="M286.301 157.642C287.125 157.726 287.862 157.127 287.947 156.303C288.031 155.479 287.432 154.742 286.608 154.657C285.784 154.573 285.047 155.172 284.962 155.996C284.878 156.82 285.477 157.557 286.301 157.642Z" fill="#FF6505"/>
<path d="M306.809 155.439L308.05 145.493L311.69 145.947C313.607 146.186 314.666 147.306 314.467 148.904C314.321 150.071 313.709 150.798 312.63 151.073C313.737 151.592 314.219 152.47 314.067 153.693C313.868 155.29 312.546 156.155 310.657 155.92L306.809 155.439ZM311.565 146.834L308.939 146.507L308.485 150.146L311.236 150.49C312.486 150.646 313.281 150.039 313.429 148.859C313.567 147.747 312.899 147.001 311.565 146.834ZM311.224 151.377L308.376 151.021L307.922 154.661L310.77 155.017C312.075 155.18 312.924 154.594 313.068 153.441C313.209 152.316 312.516 151.538 311.224 151.377ZM317.247 156.912C315.817 156.733 315.07 155.821 315.217 154.641C315.371 153.404 316.413 152.744 317.999 152.815L320.244 152.912L320.272 152.69C320.436 151.37 319.696 150.854 318.71 150.731C317.543 150.585 316.783 151.027 316.67 151.93L315.795 151.82C315.965 150.459 317.185 149.722 318.838 149.929C320.394 150.123 321.436 151.043 321.215 152.821L320.672 157.17L319.866 157.069L319.888 155.873C319.366 156.668 318.387 157.054 317.247 156.912ZM317.567 156.161C318.984 156.338 319.927 155.454 320.109 153.995L320.154 153.634L318.148 153.539C316.87 153.492 316.287 153.984 316.193 154.734C316.091 155.554 316.65 156.047 317.567 156.161ZM323.596 157.535L322.637 157.415L323.901 147.287L324.86 147.407L323.596 157.535ZM327.545 158.197C326.114 158.018 325.367 157.107 325.514 155.926C325.668 154.689 326.71 154.029 328.296 154.1L330.541 154.197L330.569 153.975C330.733 152.655 329.994 152.139 329.007 152.016C327.84 151.871 327.08 152.312 326.967 153.215L326.092 153.106C326.262 151.744 327.482 151.008 329.136 151.214C330.691 151.408 331.734 152.328 331.512 154.106L330.969 158.455L330.163 158.354L330.186 157.158C329.663 157.953 328.684 158.339 327.545 158.197ZM327.864 157.446C329.281 157.623 330.224 156.739 330.406 155.281L330.451 154.919L328.445 154.824C327.167 154.778 326.584 155.269 326.49 156.019C326.388 156.839 326.947 157.332 327.864 157.446ZM333.851 158.814L332.892 158.695L333.732 151.971L334.565 152.075L334.558 153.259C335.11 152.453 336.06 152.078 337.033 152.2C338.88 152.43 339.507 153.623 339.296 155.318L338.783 159.43L337.824 159.31L338.311 155.407C338.507 153.837 337.868 153.193 336.757 153.054C335.381 152.882 334.479 153.785 334.29 155.3L333.851 158.814ZM340.639 156.261C340.902 154.15 342.375 152.866 344.333 153.111C345.889 153.305 346.916 154.35 347.006 155.772L346.048 155.653C345.914 154.691 345.172 154.076 344.242 153.96C342.88 153.79 341.792 154.712 341.585 156.365C341.386 157.963 342.141 159.144 343.503 159.314C344.503 159.438 345.378 158.983 345.75 158.155L346.722 158.276C346.231 159.612 344.923 160.366 343.395 160.175C341.492 159.937 340.375 158.373 340.639 156.261ZM350.71 161.088C348.737 160.842 347.594 159.26 347.858 157.148C348.12 155.051 349.606 153.769 351.523 154.008C353.343 154.235 354.418 155.681 354.181 157.585L354.122 158.057L348.773 157.39C348.638 159.037 349.381 160.09 350.826 160.27C351.924 160.407 352.691 160.023 353.052 159.165L353.969 159.28C353.431 160.651 352.294 161.286 350.71 161.088ZM351.421 154.828C350.157 154.67 349.219 155.399 348.888 156.698L353.25 157.243C353.411 155.951 352.685 154.985 351.421 154.828Z" fill="#525252"/>
<path d="M306.404 182.598L303.864 182.281L305.675 167.774L311.212 168.465C314.506 168.876 316.223 170.783 315.866 173.641C315.624 175.586 314.537 176.862 312.744 177.343L314.759 183.641L311.981 183.294L310.196 177.569L307.08 177.18L306.404 182.598ZM307.933 170.353L307.36 174.938L310.357 175.312C311.965 175.513 313.024 174.778 313.207 173.309C313.388 171.861 312.537 170.928 310.929 170.727L307.933 170.353ZM316.235 188.441L318.026 174.092L320.268 174.372L320.241 175.88C320.978 174.823 322.35 174.33 323.838 174.515C326.597 174.86 328.172 177.092 327.788 180.168C327.407 183.224 325.462 185.239 322.545 184.875C321.076 184.692 319.878 183.958 319.387 182.888L318.656 188.743L316.235 188.441ZM319.855 179.299C319.634 181.065 320.575 182.412 322.242 182.62C323.949 182.833 325.114 181.729 325.332 179.982C325.55 178.236 324.694 176.859 322.987 176.646C321.32 176.438 320.075 177.533 319.855 179.299ZM344.166 187.291L334.101 186.055L334.339 184.15L339.583 180.733C341.755 179.311 342.529 178.44 342.703 177.051C342.908 175.404 342.132 174.36 340.603 174.169C339.016 173.971 337.885 174.958 337.632 176.821L335.112 176.507C335.528 173.334 337.81 171.523 340.886 171.906C343.982 172.293 345.686 174.299 345.32 177.237C345.067 179.261 343.765 180.65 341.327 182.261L338.427 184.176L344.46 184.929L344.166 187.291ZM346.63 180.282C347.192 175.777 349.995 173.023 353.706 173.486C357.417 173.95 359.477 177.311 358.915 181.816C358.355 186.301 355.679 189.01 351.829 188.53C347.978 188.049 346.07 184.768 346.63 180.282ZM349.131 180.594C348.712 183.948 349.826 186.002 352.109 186.287C354.411 186.574 355.995 184.857 356.414 181.503C356.843 178.07 355.728 176.016 353.426 175.729C351.144 175.444 349.559 177.161 349.131 180.594ZM360.623 182.029C361.185 177.524 363.988 174.77 367.699 175.233C371.41 175.696 373.47 179.057 372.908 183.562C372.348 188.047 369.672 190.757 365.822 190.276C361.971 189.796 360.063 186.514 360.623 182.029ZM363.124 182.341C362.705 185.695 363.819 187.749 366.102 188.033C368.404 188.321 369.988 186.604 370.407 183.25C370.836 179.817 369.721 177.763 367.419 177.475C365.137 177.191 363.552 178.907 363.124 182.341ZM374.992 191.4C374.119 191.291 373.474 190.485 373.58 189.632C373.689 188.759 374.512 188.136 375.386 188.245C376.259 188.354 376.904 189.16 376.795 190.033C376.689 190.887 375.865 191.509 374.992 191.4ZM378.957 184.317C379.52 179.812 382.322 177.058 386.033 177.521C389.745 177.984 391.804 181.345 391.242 185.85C390.682 190.335 388.006 193.045 384.156 192.564C380.306 192.084 378.398 188.802 378.957 184.317ZM381.458 184.629C381.039 187.983 382.154 190.037 384.436 190.322C386.738 190.609 388.323 188.892 388.741 185.538C389.17 182.105 388.056 180.051 385.754 179.764C383.471 179.479 381.886 181.196 381.458 184.629ZM392.95 186.063C393.513 181.558 396.315 178.804 400.026 179.267C403.738 179.731 405.797 183.092 405.235 187.597C404.675 192.082 401.999 194.791 398.149 194.311C394.299 193.83 392.391 190.549 392.95 186.063ZM395.451 186.375C395.032 189.729 396.147 191.783 398.429 192.068C400.731 192.355 402.316 190.638 402.734 187.285C403.163 183.851 402.049 181.797 399.747 181.51C397.464 181.225 395.879 182.942 395.451 186.375ZM406.943 187.81C407.506 183.305 410.308 180.551 414.019 181.014C417.731 181.477 419.79 184.838 419.228 189.343C418.668 193.828 415.992 196.538 412.142 196.057C408.292 195.577 406.384 192.295 406.943 187.81ZM409.444 188.122C409.025 191.476 410.14 193.53 412.422 193.815C414.724 194.102 416.309 192.385 416.727 189.031C417.156 185.598 416.042 183.544 413.74 183.256C411.457 182.972 409.872 184.689 409.444 188.122Z" fill="#FF5F0A"/>
<path d="M436.552 185.996C436.494 186.459 436.821 186.869 437.276 186.926L441.898 187.503L431.769 195.384C431.406 195.666 431.341 196.187 431.624 196.55C431.906 196.913 432.427 196.978 432.79 196.696L442.919 188.814L442.342 193.437C442.285 193.892 442.611 194.31 443.066 194.367C443.52 194.424 443.939 194.098 443.996 193.643L444.821 187.028C444.878 186.573 444.552 186.155 444.098 186.098L437.482 185.272C437.027 185.215 436.609 185.541 436.552 185.996Z" fill="#10B981"/>
<rect x="492.801" y="180.668" width="67" height="31" rx="15.5" transform="rotate(7.11406 492.801 180.668)" fill="#FF5F0A" fill-opacity="0.1"/>
<path d="M506.621 203.556L505.26 203.386L506.513 193.342L507.875 193.512L507.335 197.832L512.309 198.453L512.848 194.132L514.21 194.302L512.956 204.346L511.595 204.177L512.151 199.717L507.178 199.096L506.621 203.556ZM516.751 196.284C516.279 196.225 515.938 195.788 515.997 195.316C516.058 194.829 516.494 194.503 516.966 194.562C517.439 194.621 517.781 195.044 517.72 195.531C517.661 196.003 517.224 196.343 516.751 196.284ZM515.063 204.609L515.911 197.816L517.217 197.979L516.369 204.772L515.063 204.609ZM517.955 202.967L519.206 203.123C519.119 203.818 519.595 204.3 520.456 204.408C521.373 204.522 521.948 204.213 522.026 203.588C522.083 203.129 521.895 202.824 521.21 202.555L520.049 202.128C518.877 201.685 518.382 201.017 518.507 200.017C518.663 198.766 519.818 198.106 521.318 198.293C522.805 198.479 523.673 199.434 523.54 200.729L522.289 200.573C522.346 199.889 521.942 199.401 521.15 199.302C520.33 199.2 519.827 199.504 519.749 200.129C519.691 200.588 519.987 200.935 520.633 201.185L521.791 201.626C522.909 202.047 523.413 202.646 523.287 203.661C523.125 204.953 521.912 205.633 520.3 205.432C518.703 205.233 517.794 204.259 517.955 202.967ZM526.409 206.025L525.103 205.862L525.814 200.167L524.48 200L524.617 198.903L525.951 199.069L526.216 196.944L527.522 197.107L527.257 199.232L528.591 199.399L528.454 200.496L527.12 200.33L526.409 206.025ZM528.827 202.871C529.089 200.773 530.773 199.488 532.815 199.742C534.843 199.996 536.16 201.655 535.898 203.753C535.636 205.851 533.952 207.136 531.924 206.883C529.882 206.628 528.565 204.968 528.827 202.871ZM530.147 203.035C529.97 204.452 530.75 205.551 532.07 205.716C533.376 205.879 534.416 205.007 534.592 203.59C534.769 202.173 533.975 201.072 532.67 200.909C531.35 200.745 530.324 201.618 530.147 203.035ZM541.664 200.974L541.514 202.168L540.931 202.096C539.695 201.941 538.837 202.596 538.674 203.902L538.225 207.5L536.919 207.337L537.765 200.558L538.988 200.71L538.943 201.749C539.309 201.075 540.049 200.688 540.979 200.804C541.216 200.833 541.407 200.885 541.664 200.974ZM541.204 210.962L541.338 209.892L542.213 210.001C542.838 210.079 543.351 210.045 543.778 209.223L544.095 208.6L542.251 201.104L543.627 201.275L544.916 206.995L547.614 201.773L548.961 201.941L544.714 209.862C544.11 210.972 543.368 211.373 542.326 211.243C541.896 211.189 541.541 211.088 541.204 210.962Z" fill="#FF5F0A"/>
</g>
<defs>
<filter id="filter0_i_331_169" x="103.294" y="387.285" width="320.412" height="654.588" filterUnits="userSpaceOnUse" color-interpolation-filters="sRGB">
<feFlood flood-opacity="0" result="BackgroundImageFix"/>
<feBlend mode="normal" in="SourceGraphic" in2="BackgroundImageFix" result="shape"/>
<feColorMatrix in="SourceAlpha" type="matrix" values="0 0 0 0 0 0 0 0 0 0 0 0 0 0 0 0 0 0 127 0" result="hardAlpha"/>
<feOffset/>
<feGaussianBlur stdDeviation="3.05882"/>
<feComposite in2="hardAlpha" operator="arithmetic" k2="-1" k3="1"/>
<feColorMatrix type="matrix" values="0 0 0 0 1 0 0 0 0 1 0 0 0 0 1 0 0 0 0.9 0"/>
<feBlend mode="normal" in2="shape" result="effect1_innerShadow_331_169"/>
</filter>
<filter id="filter1_i_331_169" x="101" y="491.285" width="3.0589" height="22.9412" filterUnits="userSpaceOnUse" color-interpolation-filters="sRGB">
<feFlood flood-opacity="0" result="BackgroundImageFix"/>
<feBlend mode="normal" in="SourceGraphic" in2="BackgroundImageFix" result="shape"/>
<feColorMatrix in="SourceAlpha" type="matrix" values="0 0 0 0 0 0 0 0 0 0 0 0 0 0 0 0 0 0 127 0" result="hardAlpha"/>
<feOffset dx="0.764706"/>
<feGaussianBlur stdDeviation="0.764706"/>
<feComposite in2="hardAlpha" operator="arithmetic" k2="-1" k3="1"/>
<feColorMatrix type="matrix" values="0 0 0 0 1 0 0 0 0 1 0 0 0 0 1 0 0 0 0.5 0"/>
<feBlend mode="normal" in2="shape" result="effect1_innerShadow_331_169"/>
</filter>
<filter id="filter2_i_331_169" x="101" y="538.696" width="3.0589" height="47.4117" filterUnits="userSpaceOnUse" color-interpolation-filters="sRGB">
<feFlood flood-opacity="0" result="BackgroundImageFix"/>
<feBlend mode="normal" in="SourceGraphic" in2="BackgroundImageFix" result="shape"/>
<feColorMatrix in="SourceAlpha" type="matrix" values="0 0 0 0 0 0 0 0 0 0 0 0 0 0 0 0 0 0 127 0" result="hardAlpha"/>
<feOffset dx="0.764706"/>
<feGaussianBlur stdDeviation="0.764706"/>
<feComposite in2="hardAlpha" operator="arithmetic" k2="-1" k3="1"/>
<feColorMatrix type="matrix" values="0 0 0 0 1 0 0 0 0 1 0 0 0 0 1 0 0 0 0.5 0"/>
<feBlend mode="normal" in2="shape" result="effect1_innerShadow_331_169"/>
</filter>
<filter id="filter3_i_331_169" x="101" y="599.873" width="3.0589" height="47.4117" filterUnits="userSpaceOnUse" color-interpolation-filters="sRGB">
<feFlood flood-opacity="0" result="BackgroundImageFix"/>
<feBlend mode="normal" in="SourceGraphic" in2="BackgroundImageFix" result="shape"/>
<feColorMatrix in="SourceAlpha" type="matrix" values="0 0 0 0 0 0 0 0 0 0 0 0 0 0 0 0 0 0 127 0" result="hardAlpha"/>
<feOffset dx="0.764706"/>
<feGaussianBlur stdDeviation="0.764706"/>
<feComposite in2="hardAlpha" operator="arithmetic" k2="-1" k3="1"/>
<feColorMatrix type="matrix" values="0 0 0 0 1 0 0 0 0 1 0 0 0 0 1 0 0 0 0.5 0"/>
<feBlend mode="normal" in2="shape" result="effect1_innerShadow_331_169"/>
</filter>
<filter id="filter4_i_331_169" x="422.941" y="555.52" width="3.0589" height="76.4706" filterUnits="userSpaceOnUse" color-interpolation-filters="sRGB">
<feFlood flood-opacity="0" result="BackgroundImageFix"/>
<feBlend mode="normal" in="SourceGraphic" in2="BackgroundImageFix" result="shape"/>
<feColorMatrix in="SourceAlpha" type="matrix" values="0 0 0 0 0 0 0 0 0 0 0 0 0 0 0 0 0 0 127 0" result="hardAlpha"/>
<feOffset dx="-0.764706"/>
<feGaussianBlur stdDeviation="0.764706"/>
<feComposite in2="hardAlpha" operator="arithmetic" k2="-1" k3="1"/>
<feColorMatrix type="matrix" values="0 0 0 0 1 0 0 0 0 1 0 0 0 0 1 0 0 0 0.5 0"/>
<feBlend mode="normal" in2="shape" result="effect1_innerShadow_331_169"/>
</filter>
<filter id="filter5_i_331_169" x="476.294" y="267.285" width="320.412" height="654.588" filterUnits="userSpaceOnUse" color-interpolation-filters="sRGB">
<feFlood flood-opacity="0" result="BackgroundImageFix"/>
<feBlend mode="normal" in="SourceGraphic" in2="BackgroundImageFix" result="shape"/>
<feColorMatrix in="SourceAlpha" type="matrix" values="0 0 0 0 0 0 0 0 0 0 0 0 0 0 0 0 0 0 127 0" result="hardAlpha"/>
<feOffset/>
<feGaussianBlur stdDeviation="3.05882"/>
<feComposite in2="hardAlpha" operator="arithmetic" k2="-1" k3="1"/>
<feColorMatrix type="matrix" values="0 0 0 0 1 0 0 0 0 1 0 0 0 0 1 0 0 0 0.9 0"/>
<feBlend mode="normal" in2="shape" result="effect1_innerShadow_331_169"/>
</filter>
<filter id="filter6_i_331_169" x="474" y="371.285" width="3.0589" height="22.9412" filterUnits="userSpaceOnUse" color-interpolation-filters="sRGB">
<feFlood flood-opacity="0" result="BackgroundImageFix"/>
<feBlend mode="normal" in="SourceGraphic" in2="BackgroundImageFix" result="shape"/>
<feColorMatrix in="SourceAlpha" type="matrix" values="0 0 0 0 0 0 0 0 0 0 0 0 0 0 0 0 0 0 127 0" result="hardAlpha"/>
<feOffset dx="0.764706"/>
<feGaussianBlur stdDeviation="0.764706"/>
<feComposite in2="hardAlpha" operator="arithmetic" k2="-1" k3="1"/>
<feColorMatrix type="matrix" values="0 0 0 0 1 0 0 0 0 1 0 0 0 0 1 0 0 0 0.5 0"/>
<feBlend mode="normal" in2="shape" result="effect1_innerShadow_331_169"/>
</filter>
<filter id="filter7_i_331_169" x="474" y="418.696" width="3.0589" height="47.4117" filterUnits="userSpaceOnUse" color-interpolation-filters="sRGB">
<feFlood flood-opacity="0" result="BackgroundImageFix"/>
<feBlend mode="normal" in="SourceGraphic" in2="BackgroundImageFix" result="shape"/>
<feColorMatrix in="SourceAlpha" type="matrix" values="0 0 0 0 0 0 0 0 0 0 0 0 0 0 0 0 0 0 127 0" result="hardAlpha"/>
<feOffset dx="0.764706"/>
<feGaussianBlur stdDeviation="0.764706"/>
<feComposite in2="hardAlpha" operator="arithmetic" k2="-1" k3="1"/>
<feColorMatrix type="matrix" values="0 0 0 0 1 0 0 0 0 1 0 0 0 0 1 0 0 0 0.5 0"/>
<feBlend mode="normal" in2="shape" result="effect1_innerShadow_331_169"/>
</filter>
<filter id="filter8_i_331_169" x="474" y="479.873" width="3.0589" height="47.4117" filterUnits="userSpaceOnUse" color-interpolation-filters="sRGB">
<feFlood flood-opacity="0" result="BackgroundImageFix"/>
<feBlend mode="normal" in="SourceGraphic" in2="BackgroundImageFix" result="shape"/>
<feColorMatrix in="SourceAlpha" type="matrix" values="0 0 0 0 0 0 0 0 0 0 0 0 0 0 0 0 0 0 127 0" result="hardAlpha"/>
<feOffset dx="0.764706"/>
<feGaussianBlur stdDeviation="0.764706"/>
<feComposite in2="hardAlpha" operator="arithmetic" k2="-1" k3="1"/>
<feColorMatrix type="matrix" values="0 0 0 0 1 0 0 0 0 1 0 0 0 0 1 0 0 0 0.5 0"/>
<feBlend mode="normal" in2="shape" result="effect1_innerShadow_331_169"/>
</filter>
<filter id="filter9_i_331_169" x="795.941" y="435.52" width="3.0589" height="76.4706" filterUnits="userSpaceOnUse" color-interpolation-filters="sRGB">
<feFlood flood-opacity="0" result="BackgroundImageFix"/>
<feBlend mode="normal" in="SourceGraphic" in2="BackgroundImageFix" result="shape"/>
<feColorMatrix in="SourceAlpha" type="matrix" values="0 0 0 0 0 0 0 0 0 0 0 0 0 0 0 0 0 0 127 0" result="hardAlpha"/>
<feOffset dx="-0.764706"/>
<feGaussianBlur stdDeviation="0.764706"/>
<feComposite in2="hardAlpha" operator="arithmetic" k2="-1" k3="1"/>
<feColorMatrix type="matrix" values="0 0 0 0 1 0 0 0 0 1 0 0 0 0 1 0 0 0 0.5 0"/>
<feBlend mode="normal" in2="shape" result="effect1_innerShadow_331_169"/>
</filter>
<filter id="filter10_i_331_169" x="849.294" y="318.285" width="320.412" height="654.588" filterUnits="userSpaceOnUse" color-interpolation-filters="sRGB">
<feFlood flood-opacity="0" result="BackgroundImageFix"/>
<feBlend mode="normal" in="SourceGraphic" in2="BackgroundImageFix" result="shape"/>
<feColorMatrix in="SourceAlpha" type="matrix" values="0 0 0 0 0 0 0 0 0 0 0 0 0 0 0 0 0 0 127 0" result="hardAlpha"/>
<feOffset/>
<feGaussianBlur stdDeviation="3.05882"/>
<feComposite in2="hardAlpha" operator="arithmetic" k2="-1" k3="1"/>
<feColorMatrix type="matrix" values="0 0 0 0 1 0 0 0 0 1 0 0 0 0 1 0 0 0 0.9 0"/>
<feBlend mode="normal" in2="shape" result="effect1_innerShadow_331_169"/>
</filter>
<filter id="filter11_i_331_169" x="847" y="422.285" width="3.0589" height="22.9412" filterUnits="userSpaceOnUse" color-interpolation-filters="sRGB">
<feFlood flood-opacity="0" result="BackgroundImageFix"/>
<feBlend mode="normal" in="SourceGraphic" in2="BackgroundImageFix" result="shape"/>
<feColorMatrix in="SourceAlpha" type="matrix" values="0 0 0 0 0 0 0 0 0 0 0 0 0 0 0 0 0 0 127 0" result="hardAlpha"/>
<feOffset dx="0.764706"/>
<feGaussianBlur stdDeviation="0.764706"/>
<feComposite in2="hardAlpha" operator="arithmetic" k2="-1" k3="1"/>
<feColorMatrix type="matrix" values="0 0 0 0 1 0 0 0 0 1 0 0 0 0 1 0 0 0 0.5 0"/>
<feBlend mode="normal" in2="shape" result="effect1_innerShadow_331_169"/>
</filter>
<filter id="filter12_i_331_169" x="847" y="469.696" width="3.0589" height="47.4117" filterUnits="userSpaceOnUse" color-interpolation-filters="sRGB">
<feFlood flood-opacity="0" result="BackgroundImageFix"/>
<feBlend mode="normal" in="SourceGraphic" in2="BackgroundImageFix" result="shape"/>
<feColorMatrix in="SourceAlpha" type="matrix" values="0 0 0 0 0 0 0 0 0 0 0 0 0 0 0 0 0 0 127 0" result="hardAlpha"/>
<feOffset dx="0.764706"/>
<feGaussianBlur stdDeviation="0.764706"/>
<feComposite in2="hardAlpha" operator="arithmetic" k2="-1" k3="1"/>
<feColorMatrix type="matrix" values="0 0 0 0 1 0 0 0 0 1 0 0 0 0 1 0 0 0 0.5 0"/>
<feBlend mode="normal" in2="shape" result="effect1_innerShadow_331_169"/>
</filter>
<filter id="filter13_i_331_169" x="847" y="530.873" width="3.0589" height="47.4117" filterUnits="userSpaceOnUse" color-interpolation-filters="sRGB">
<feFlood flood-opacity="0" result="BackgroundImageFix"/>
<feBlend mode="normal" in="SourceGraphic" in2="BackgroundImageFix" result="shape"/>
<feColorMatrix in="SourceAlpha" type="matrix" values="0 0 0 0 0 0 0 0 0 0 0 0 0 0 0 0 0 0 127 0" result="hardAlpha"/>
<feOffset dx="0.764706"/>
<feGaussianBlur stdDeviation="0.764706"/>
<feComposite in2="hardAlpha" operator="arithmetic" k2="-1" k3="1"/>
<feColorMatrix type="matrix" values="0 0 0 0 1 0 0 0 0 1 0 0 0 0 1 0 0 0 0.5 0"/>
<feBlend mode="normal" in2="shape" result="effect1_innerShadow_331_169"/>
</filter>
<filter id="filter14_i_331_169" x="1168.94" y="486.52" width="3.05865" height="76.4706" filterUnits="userSpaceOnUse" color-interpolation-filters="sRGB">
<feFlood flood-opacity="0" result="BackgroundImageFix"/>
<feBlend mode="normal" in="SourceGraphic" in2="BackgroundImageFix" result="shape"/>
<feColorMatrix in="SourceAlpha" type="matrix" values="0 0 0 0 0 0 0 0 0 0 0 0 0 0 0 0 0 0 127 0" result="hardAlpha"/>
<feOffset dx="-0.764706"/>
<feGaussianBlur stdDeviation="0.764706"/>
<feComposite in2="hardAlpha" operator="arithmetic" k2="-1" k3="1"/>
<feColorMatrix type="matrix" values="0 0 0 0 1 0 0 0 0 1 0 0 0 0 1 0 0 0 0.5 0"/>
<feBlend mode="normal" in2="shape" result="effect1_innerShadow_331_169"/>
</filter>
<filter id="filter15_ddddd_331_169" x="800.109" y="155.476" width="458.782" height="227.206" filterUnits="userSpaceOnUse" color-interpolation-filters="sRGB">
<feFlood flood-opacity="0" result="BackgroundImageFix"/>
<feColorMatrix in="SourceAlpha" type="matrix" values="0 0 0 0 0 0 0 0 0 0 0 0 0 0 0 0 0 0 127 0" result="hardAlpha"/>
<feOffset/>
<feColorMatrix type="matrix" values="0 0 0 0 0.780392 0 0 0 0 0.780392 0 0 0 0 0.780392 0 0 0 0.1 0"/>
<feBlend mode="normal" in2="BackgroundImageFix" result="effect1_dropShadow_331_169"/>
<feColorMatrix in="SourceAlpha" type="matrix" values="0 0 0 0 0 0 0 0 0 0 0 0 0 0 0 0 0 0 127 0" result="hardAlpha"/>
<feOffset dx="4" dy="4"/>
<feGaussianBlur stdDeviation="6.5"/>
<feColorMatrix type="matrix" values="0 0 0 0 0.780392 0 0 0 0 0.780392 0 0 0 0 0.780392 0 0 0 0.1 0"/>
<feBlend mode="normal" in2="effect1_dropShadow_331_169" result="effect2_dropShadow_331_169"/>
<feColorMatrix in="SourceAlpha" type="matrix" values="0 0 0 0 0 0 0 0 0 0 0 0 0 0 0 0 0 0 127 0" result="hardAlpha"/>
<feOffset dx="17" dy="18"/>
<feGaussianBlur stdDeviation="12"/>
<feColorMatrix type="matrix" values="0 0 0 0 0.780392 0 0 0 0 0.780392 0 0 0 0 0.780392 0 0 0 0.09 0"/>
<feBlend mode="normal" in2="effect2_dropShadow_331_169" result="effect3_dropShadow_331_169"/>
<feColorMatrix in="SourceAlpha" type="matrix" values="0 0 0 0 0 0 0 0 0 0 0 0 0 0 0 0 0 0 127 0" result="hardAlpha"/>
<feOffset dx="37" dy="40"/>
<feGaussianBlur stdDeviation="16.5"/>
<feColorMatrix type="matrix" values="0 0 0 0 0.780392 0 0 0 0 0.780392 0 0 0 0 0.780392 0 0 0 0.05 0"/>
<feBlend mode="normal" in2="effect3_dropShadow_331_169" result="effect4_dropShadow_331_169"/>
<feColorMatrix in="SourceAlpha" type="matrix" values="0 0 0 0 0 0 0 0 0 0 0 0 0 0 0 0 0 0 127 0" result="hardAlpha"/>
<feOffset dx="66" dy="71"/>
<feGaussianBlur stdDeviation="19.5"/>
<feColorMatrix type="matrix" values="0 0 0 0 0.780392 0 0 0 0 0.780392 0 0 0 0 0.780392 0 0 0 0.01 0"/>
<feBlend mode="normal" in2="effect4_dropShadow_331_169" result="effect5_dropShadow_331_169"/>
<feBlend mode="normal" in="SourceGraphic" in2="effect5_dropShadow_331_169" result="shape"/>
</filter>
<filter id="filter16_ddddd_331_169" x="969.385" y="138.969" width="181.574" height="108.663" filterUnits="userSpaceOnUse" color-interpolation-filters="sRGB">
<feFlood flood-opacity="0" result="BackgroundImageFix"/>
<feColorMatrix in="SourceAlpha" type="matrix" values="0 0 0 0 0 0 0 0 0 0 0 0 0 0 0 0 0 0 127 0" result="hardAlpha"/>
<feOffset/>
<feColorMatrix type="matrix" values="0 0 0 0 0.619608 0 0 0 0 0.619608 0 0 0 0 0.619608 0 0 0 0.04 0"/>
<feBlend mode="normal" in2="BackgroundImageFix" result="effect1_dropShadow_331_169"/>
<feColorMatrix in="SourceAlpha" type="matrix" values="0 0 0 0 0 0 0 0 0 0 0 0 0 0 0 0 0 0 127 0" result="hardAlpha"/>
<feOffset dx="1" dy="1"/>
<feGaussianBlur stdDeviation="2.5"/>
<feColorMatrix type="matrix" values="0 0 0 0 0.619608 0 0 0 0 0.619608 0 0 0 0 0.619608 0 0 0 0.04 0"/>
<feBlend mode="normal" in2="effect1_dropShadow_331_169" result="effect2_dropShadow_331_169"/>
<feColorMatrix in="SourceAlpha" type="matrix" values="0 0 0 0 0 0 0 0 0 0 0 0 0 0 0 0 0 0 127 0" result="hardAlpha"/>
<feOffset dx="6" dy="6"/>
<feGaussianBlur stdDeviation="4"/>
<feColorMatrix type="matrix" values="0 0 0 0 0.619608 0 0 0 0 0.619608 0 0 0 0 0.619608 0 0 0 0.03 0"/>
<feBlend mode="normal" in2="effect2_dropShadow_331_169" result="effect3_dropShadow_331_169"/>
<feColorMatrix in="SourceAlpha" type="matrix" values="0 0 0 0 0 0 0 0 0 0 0 0 0 0 0 0 0 0 127 0" result="hardAlpha"/>
<feOffset dx="13" dy="13"/>
<feGaussianBlur stdDeviation="5.5"/>
<feColorMatrix type="matrix" values="0 0 0 0 0.619608 0 0 0 0 0.619608 0 0 0 0 0.619608 0 0 0 0.02 0"/>
<feBlend mode="normal" in2="effect3_dropShadow_331_169" result="effect4_dropShadow_331_169"/>
<feColorMatrix in="SourceAlpha" type="matrix" values="0 0 0 0 0 0 0 0 0 0 0 0 0 0 0 0 0 0 127 0" result="hardAlpha"/>
<feOffset dx="24" dy="24"/>
<feGaussianBlur stdDeviation="6.5"/>
<feColorMatrix type="matrix" values="0 0 0 0 0.619608 0 0 0 0 0.619608 0 0 0 0 0.619608 0 0 0 0.01 0"/>
<feBlend mode="normal" in2="effect4_dropShadow_331_169" result="effect5_dropShadow_331_169"/>
<feBlend mode="normal" in="SourceGraphic" in2="effect5_dropShadow_331_169" result="shape"/>
</filter>
<filter id="filter17_ddddd_331_169" x="11.9971" y="134.95" width="543.504" height="433.994" filterUnits="userSpaceOnUse" color-interpolation-filters="sRGB">
<feFlood flood-opacity="0" result="BackgroundImageFix"/>
<feColorMatrix in="SourceAlpha" type="matrix" values="0 0 0 0 0 0 0 0 0 0 0 0 0 0 0 0 0 0 127 0" result="hardAlpha"/>
<feOffset/>
<feColorMatrix type="matrix" values="0 0 0 0 0.788235 0 0 0 0 0.788235 0 0 0 0 0.788235 0 0 0 0.1 0"/>
<feBlend mode="normal" in2="BackgroundImageFix" result="effect1_dropShadow_331_169"/>
<feColorMatrix in="SourceAlpha" type="matrix" values="0 0 0 0 0 0 0 0 0 0 0 0 0 0 0 0 0 0 127 0" result="hardAlpha"/>
<feOffset dx="6" dy="8"/>
<feGaussianBlur stdDeviation="11"/>
<feColorMatrix type="matrix" values="0 0 0 0 0.788235 0 0 0 0 0.788235 0 0 0 0 0.788235 0 0 0 0.1 0"/>
<feBlend mode="normal" in2="effect1_dropShadow_331_169" result="effect2_dropShadow_331_169"/>
<feColorMatrix in="SourceAlpha" type="matrix" values="0 0 0 0 0 0 0 0 0 0 0 0 0 0 0 0 0 0 127 0" result="hardAlpha"/>
<feOffset dx="24" dy="31"/>
<feGaussianBlur stdDeviation="20"/>
<feColorMatrix type="matrix" values="0 0 0 0 0.788235 0 0 0 0 0.788235 0 0 0 0 0.788235 0 0 0 0.09 0"/>
<feBlend mode="normal" in2="effect2_dropShadow_331_169" result="effect3_dropShadow_331_169"/>
<feColorMatrix in="SourceAlpha" type="matrix" values="0 0 0 0 0 0 0 0 0 0 0 0 0 0 0 0 0 0 127 0" result="hardAlpha"/>
<feOffset dx="55" dy="71"/>
<feGaussianBlur stdDeviation="27"/>
<feColorMatrix type="matrix" values="0 0 0 0 0.788235 0 0 0 0 0.788235 0 0 0 0 0.788235 0 0 0 0.05 0"/>
<feBlend mode="normal" in2="effect3_dropShadow_331_169" result="effect4_dropShadow_331_169"/>
<feColorMatrix in="SourceAlpha" type="matrix" values="0 0 0 0 0 0 0 0 0 0 0 0 0 0 0 0 0 0 127 0" result="hardAlpha"/>
<feOffset dx="98" dy="126"/>
<feGaussianBlur stdDeviation="32"/>
<feColorMatrix type="matrix" values="0 0 0 0 0.788235 0 0 0 0 0.788235 0 0 0 0 0.788235 0 0 0 0.01 0"/>
<feBlend mode="normal" in2="effect4_dropShadow_331_169" result="effect5_dropShadow_331_169"/>
<feBlend mode="normal" in="SourceGraphic" in2="effect5_dropShadow_331_169" result="shape"/>
</filter>
<filter id="filter18_ddddd_331_169" x="213.22" y="112" width="392.029" height="216.585" filterUnits="userSpaceOnUse" color-interpolation-filters="sRGB">
<feFlood flood-opacity="0" result="BackgroundImageFix"/>
<feColorMatrix in="SourceAlpha" type="matrix" values="0 0 0 0 0 0 0 0 0 0 0 0 0 0 0 0 0 0 127 0" result="hardAlpha"/>
<feOffset/>
<feColorMatrix type="matrix" values="0 0 0 0 0.788235 0 0 0 0 0.788235 0 0 0 0 0.788235 0 0 0 0.1 0"/>
<feBlend mode="normal" in2="BackgroundImageFix" result="effect1_dropShadow_331_169"/>
<feColorMatrix in="SourceAlpha" type="matrix" values="0 0 0 0 0 0 0 0 0 0 0 0 0 0 0 0 0 0 127 0" result="hardAlpha"/>
<feOffset dy="4"/>
<feGaussianBlur stdDeviation="4.5"/>
<feColorMatrix type="matrix" values="0 0 0 0 0.788235 0 0 0 0 0.788235 0 0 0 0 0.788235 0 0 0 0.1 0"/>
<feBlend mode="normal" in2="effect1_dropShadow_331_169" result="effect2_dropShadow_331_169"/>
<feColorMatrix in="SourceAlpha" type="matrix" values="0 0 0 0 0 0 0 0 0 0 0 0 0 0 0 0 0 0 127 0" result="hardAlpha"/>
<feOffset dy="16"/>
<feGaussianBlur stdDeviation="8"/>
<feColorMatrix type="matrix" values="0 0 0 0 0.788235 0 0 0 0 0.788235 0 0 0 0 0.788235 0 0 0 0.09 0"/>
<feBlend mode="normal" in2="effect2_dropShadow_331_169" result="effect3_dropShadow_331_169"/>
<feColorMatrix in="SourceAlpha" type="matrix" values="0 0 0 0 0 0 0 0 0 0 0 0 0 0 0 0 0 0 127 0" result="hardAlpha"/>
<feOffset dy="36"/>
<feGaussianBlur stdDeviation="11"/>
<feColorMatrix type="matrix" values="0 0 0 0 0.788235 0 0 0 0 0.788235 0 0 0 0 0.788235 0 0 0 0.05 0"/>
<feBlend mode="normal" in2="effect3_dropShadow_331_169" result="effect4_dropShadow_331_169"/>
<feColorMatrix in="SourceAlpha" type="matrix" values="0 0 0 0 0 0 0 0 0 0 0 0 0 0 0 0 0 0 127 0" result="hardAlpha"/>
<feOffset dy="65"/>
<feGaussianBlur stdDeviation="13"/>
<feColorMatrix type="matrix" values="0 0 0 0 0.788235 0 0 0 0 0.788235 0 0 0 0 0.788235 0 0 0 0.01 0"/>
<feBlend mode="normal" in2="effect4_dropShadow_331_169" result="effect5_dropShadow_331_169"/>
<feBlend mode="normal" in="SourceGraphic" in2="effect5_dropShadow_331_169" result="shape"/>
</filter>
<linearGradient id="paint0_linear_331_169" x1="263.5" y1="387.285" x2="263.5" y2="1041.87" gradientUnits="userSpaceOnUse">
<stop stop-color="white" stop-opacity="0.6"/>
<stop offset="1" stop-color="white" stop-opacity="0.3"/>
</linearGradient>
<linearGradient id="paint1_linear_331_169" x1="636.5" y1="267.285" x2="636.5" y2="921.873" gradientUnits="userSpaceOnUse">
<stop stop-color="white" stop-opacity="0.6"/>
<stop offset="1" stop-color="white" stop-opacity="0.3"/>
</linearGradient>
<linearGradient id="paint2_linear_331_169" x1="1009.5" y1="318.285" x2="1009.5" y2="972.873" gradientUnits="userSpaceOnUse">
<stop stop-color="white" stop-opacity="0.6"/>
<stop offset="1" stop-color="white" stop-opacity="0.3"/>
</linearGradient>
<clipPath id="clip0_331_169">
<rect width="1272" height="723" fill="white"/>
</clipPath>
<clipPath id="clip1_331_169">
<rect width="1071" height="455" fill="white" transform="translate(101 268)"/>
</clipPath>
<clipPath id="clip2_331_169">
<rect width="18" height="20" fill="white" transform="translate(61.2136 241.073) rotate(-12.01)"/>
</clipPath>
</defs>
</svg>
