<svg width="437" height="243" viewBox="0 0 437 243" fill="none" xmlns="http://www.w3.org/2000/svg">
<rect width="436.853" height="242.206" rx="24" fill="white" fill-opacity="0.1"/>
<path d="M24.7708 34.3096C24.7708 32.0339 26.6061 30.4922 29.3407 30.4922C31.8734 30.4922 33.5068 31.9054 33.6536 34.1995H31.8367C31.7449 32.8781 30.8089 32.1073 29.3224 32.1073C27.6522 32.1073 26.5694 32.9515 26.5694 34.2546C26.5694 35.3191 27.1751 35.9614 28.4231 36.2551L30.6071 36.7689C32.7727 37.2645 33.8739 38.4391 33.8739 40.3111C33.8739 42.6969 32.0202 44.2202 29.1939 44.2202C26.496 44.2202 24.6974 42.8071 24.5873 40.5313H26.4226C26.4593 41.7976 27.5238 42.6052 29.1939 42.6052C30.9558 42.6052 32.0753 41.7793 32.0753 40.4579C32.0753 39.4118 31.5064 38.7511 30.24 38.4574L28.056 37.9619C25.8904 37.4664 24.7708 36.2184 24.7708 34.3096ZM34.9778 48.0193V46.6061H36.134C36.9599 46.6061 37.6206 46.4776 38.0427 45.3398L38.3547 44.4772L34.7392 35.0254H36.5561L39.1623 42.2565L41.8234 35.0254H43.6037L39.3641 46.0188C38.7585 47.5605 37.8592 48.2028 36.4827 48.2028C35.9138 48.2028 35.4366 48.1294 34.9778 48.0193ZM44.0532 39.5219C44.0532 36.7139 45.8334 34.7685 48.4579 34.7685C50.7153 34.7685 52.2936 36.0532 52.6056 38.0536H50.8805C50.5868 36.9158 49.6692 36.3101 48.5129 36.3101C46.8795 36.3101 45.76 37.5581 45.76 39.5035C45.76 41.4306 46.8061 42.6786 48.4395 42.6786C49.6692 42.6786 50.5868 42.0362 50.8988 40.9718H52.624C52.2753 42.9172 50.6052 44.2202 48.4395 44.2202C45.7967 44.2202 44.0532 42.3482 44.0532 39.5219ZM56.1694 44H54.4442V35.0254H56.0042L56.1878 36.4019C56.7567 35.3741 57.8946 34.7685 59.1609 34.7685C61.5285 34.7685 62.6113 36.2184 62.6113 38.5125V44H60.8861V38.8979C60.8861 37.0809 60.0419 36.3468 58.7205 36.3468C57.1054 36.3468 56.1694 37.5031 56.1694 39.2466V44ZM66.7259 43.9816H65.0008V30.4922H66.7259V36.4019C67.2949 35.4292 68.3777 34.7685 69.7725 34.7685C72.0666 34.7685 73.1678 36.2184 73.1678 38.5125V44H71.4426V38.8979C71.4426 37.0809 70.5801 36.3468 69.2954 36.3468C67.6252 36.3468 66.7259 37.5581 66.7259 39.0998V43.9816ZM80.6961 34.952V36.5304H79.9253C78.2919 36.5304 77.2825 37.5214 77.2825 39.2466V44H75.5573V35.0438H77.1723L77.2825 36.4019C77.6495 35.4659 78.5488 34.8419 79.7785 34.8419C80.0905 34.8419 80.3474 34.8786 80.6961 34.952ZM81.4043 39.5035C81.4043 36.7322 83.3864 34.7868 86.0843 34.7868C88.7638 34.7868 90.7459 36.7322 90.7459 39.5035C90.7459 42.2748 88.7638 44.2202 86.0843 44.2202C83.3864 44.2202 81.4043 42.2748 81.4043 39.5035ZM83.1478 39.5035C83.1478 41.3755 84.3407 42.6786 86.0843 42.6786C87.8095 42.6786 89.0208 41.3755 89.0208 39.5035C89.0208 37.6315 87.8095 36.3285 86.0843 36.3285C84.3407 36.3285 83.1478 37.6315 83.1478 39.5035ZM94.3808 44H92.6556V35.0254H94.2156L94.3992 36.4019C94.9681 35.3741 96.106 34.7685 97.3723 34.7685C99.7399 34.7685 100.823 36.2184 100.823 38.5125V44H99.0975V38.8979C99.0975 37.0809 98.2533 36.3468 96.9319 36.3468C95.3168 36.3468 94.3808 37.5031 94.3808 39.2466V44ZM104.056 32.8965C103.432 32.8965 102.919 32.3826 102.919 31.7586C102.919 31.1162 103.432 30.6207 104.056 30.6207C104.68 30.6207 105.194 31.1162 105.194 31.7586C105.194 32.3826 104.68 32.8965 104.056 32.8965ZM103.212 44V35.0254H104.937V44H103.212ZM113.884 44H106.891V42.6052L111.737 36.4753H106.891V35.0254H113.884V36.4386L109.002 42.5501H113.884V44ZM119.505 44.2202C116.862 44.2202 115.045 42.3115 115.045 39.5219C115.045 36.7139 116.826 34.7685 119.432 34.7685C121.983 34.7685 123.653 36.5304 123.653 39.1915V39.8339L116.715 39.8522C116.844 41.7426 117.835 42.7887 119.542 42.7887C120.882 42.7887 121.763 42.2381 122.056 41.2104H123.671C123.231 43.1374 121.726 44.2202 119.505 44.2202ZM119.432 36.2184C117.927 36.2184 116.972 37.1176 116.752 38.696H121.928C121.928 37.2094 120.955 36.2184 119.432 36.2184ZM129.177 44.2202C126.571 44.2202 124.993 42.2748 124.993 39.5402C124.993 36.7873 126.589 34.7685 129.25 34.7685C130.627 34.7685 131.783 35.3741 132.389 36.4753V30.4922H134.096V44H132.554L132.407 42.3666C131.82 43.5962 130.609 44.2202 129.177 44.2202ZM129.526 42.6602C131.288 42.6602 132.37 41.3572 132.37 39.4852C132.37 37.6499 131.288 36.3285 129.526 36.3285C127.764 36.3285 126.736 37.6499 126.736 39.4852C126.736 41.3388 127.764 42.6602 129.526 42.6602Z" fill="white"/>
<rect x="370.735" y="24" width="42.1177" height="26.5882" rx="13.2941" fill="#737373"/>
<path d="M391.483 43.4868C390.295 43.4868 389.342 43.1388 388.625 42.4429C387.918 41.7471 387.565 40.821 387.565 39.6648H389.123C389.123 40.4142 389.337 41.003 389.765 41.4312C390.193 41.8595 390.777 42.0736 391.515 42.0736C392.297 42.0736 392.923 41.8381 393.394 41.367C393.865 40.8852 394.101 40.2482 394.101 39.456C394.101 38.6959 393.871 38.0749 393.41 37.5932C392.95 37.1007 392.324 36.8545 391.532 36.8545C391.05 36.8545 390.595 36.9562 390.167 37.1596C389.738 37.363 389.39 37.636 389.123 37.9786L387.79 37.6414L389.203 31.6835H395.016V33.1288H390.343L389.572 36.2121C390.193 35.7411 390.943 35.5055 391.821 35.5055C392.988 35.5055 393.924 35.8695 394.631 36.5975C395.348 37.3255 395.707 38.2569 395.707 39.3918C395.707 40.6015 395.316 41.5865 394.535 42.3466C393.753 43.1067 392.736 43.4868 391.483 43.4868Z" fill="white"/>
<rect x="24" y="64.3529" width="388.853" height="153.853" rx="16" fill="#EBEBEB"/>
<g filter="url(#filter0_d_377_4160)">
<rect x="42" y="92" width="353" height="99" rx="18" fill="white"/>
</g>
<path d="M69.488 119.281C70.0167 119.428 70.4327 119.697 70.736 120.087C71.0393 120.468 71.191 120.954 71.191 121.543C71.191 122.332 70.892 122.938 70.294 123.363C69.7047 123.788 68.8423 124 67.707 124H63.365V114.9H67.447C68.487 114.9 69.2887 115.108 69.852 115.524C70.424 115.94 70.71 116.516 70.71 117.253C70.71 117.73 70.5973 118.141 70.372 118.488C70.1553 118.835 69.8607 119.099 69.488 119.281ZM64.665 115.953V118.865H67.33C67.9973 118.865 68.5087 118.744 68.864 118.501C69.228 118.25 69.41 117.886 69.41 117.409C69.41 116.932 69.228 116.573 68.864 116.33C68.5087 116.079 67.9973 115.953 67.33 115.953H64.665ZM67.655 122.947C68.3917 122.947 68.9463 122.826 69.319 122.583C69.6917 122.34 69.878 121.959 69.878 121.439C69.878 120.425 69.137 119.918 67.655 119.918H64.665V122.947H67.655ZM75.5309 117.045C76.4842 117.045 77.2122 117.279 77.7149 117.747C78.2262 118.215 78.4819 118.913 78.4819 119.84V124H77.2989V123.09C77.0909 123.411 76.7919 123.658 76.4019 123.831C76.0205 123.996 75.5655 124.078 75.0369 124.078C74.2655 124.078 73.6459 123.892 73.1779 123.519C72.7185 123.146 72.4889 122.657 72.4889 122.05C72.4889 121.443 72.7099 120.958 73.1519 120.594C73.5939 120.221 74.2959 120.035 75.2579 120.035H77.2339V119.788C77.2339 119.251 77.0779 118.839 76.7659 118.553C76.4539 118.267 75.9945 118.124 75.3879 118.124C74.9805 118.124 74.5819 118.193 74.1919 118.332C73.8019 118.462 73.4725 118.64 73.2039 118.865L72.6839 117.929C73.0392 117.643 73.4639 117.426 73.9579 117.279C74.4519 117.123 74.9762 117.045 75.5309 117.045ZM75.2449 123.116C75.7215 123.116 76.1332 123.012 76.4799 122.804C76.8265 122.587 77.0779 122.284 77.2339 121.894V120.932H75.3099C74.2525 120.932 73.7239 121.287 73.7239 121.998C73.7239 122.345 73.8582 122.618 74.1269 122.817C74.3955 123.016 74.7682 123.116 75.2449 123.116ZM80.7914 114.354H82.0394V124H80.7914V114.354ZM86.9313 117.045C87.8846 117.045 88.6126 117.279 89.1153 117.747C89.6266 118.215 89.8823 118.913 89.8823 119.84V124H88.6993V123.09C88.4913 123.411 88.1923 123.658 87.8023 123.831C87.4209 123.996 86.9659 124.078 86.4373 124.078C85.6659 124.078 85.0463 123.892 84.5783 123.519C84.1189 123.146 83.8893 122.657 83.8893 122.05C83.8893 121.443 84.1103 120.958 84.5523 120.594C84.9943 120.221 85.6963 120.035 86.6583 120.035H88.6343V119.788C88.6343 119.251 88.4783 118.839 88.1663 118.553C87.8543 118.267 87.3949 118.124 86.7883 118.124C86.3809 118.124 85.9823 118.193 85.5923 118.332C85.2023 118.462 84.8729 118.64 84.6043 118.865L84.0843 117.929C84.4396 117.643 84.8643 117.426 85.3583 117.279C85.8523 117.123 86.3766 117.045 86.9313 117.045ZM86.6453 123.116C87.1219 123.116 87.5336 123.012 87.8803 122.804C88.2269 122.587 88.4783 122.284 88.6343 121.894V120.932H86.7103C85.6529 120.932 85.1243 121.287 85.1243 121.998C85.1243 122.345 85.2586 122.618 85.5273 122.817C85.7959 123.016 86.1686 123.116 86.6453 123.116ZM95.8708 117.045C96.7461 117.045 97.4395 117.301 97.9508 117.812C98.4708 118.315 98.7308 119.056 98.7308 120.035V124H97.4828V120.178C97.4828 119.511 97.3225 119.008 97.0018 118.67C96.6811 118.332 96.2218 118.163 95.6238 118.163C94.9478 118.163 94.4148 118.362 94.0248 118.761C93.6348 119.151 93.4398 119.714 93.4398 120.451V124H92.1918V117.11H93.3878V118.15C93.6391 117.795 93.9771 117.522 94.4018 117.331C94.8351 117.14 95.3248 117.045 95.8708 117.045ZM104.082 124.078C103.38 124.078 102.751 123.926 102.197 123.623C101.651 123.32 101.222 122.904 100.91 122.375C100.598 121.838 100.442 121.231 100.442 120.555C100.442 119.879 100.598 119.277 100.91 118.748C101.222 118.211 101.651 117.795 102.197 117.5C102.751 117.197 103.38 117.045 104.082 117.045C104.706 117.045 105.26 117.171 105.746 117.422C106.24 117.673 106.621 118.037 106.89 118.514L105.941 119.125C105.724 118.796 105.455 118.549 105.135 118.384C104.814 118.219 104.459 118.137 104.069 118.137C103.618 118.137 103.211 118.237 102.847 118.436C102.491 118.635 102.21 118.921 102.002 119.294C101.802 119.658 101.703 120.078 101.703 120.555C101.703 121.04 101.802 121.469 102.002 121.842C102.21 122.206 102.491 122.488 102.847 122.687C103.211 122.886 103.618 122.986 104.069 122.986C104.459 122.986 104.814 122.904 105.135 122.739C105.455 122.574 105.724 122.327 105.941 121.998L106.89 122.596C106.621 123.073 106.24 123.441 105.746 123.701C105.26 123.952 104.706 124.078 104.082 124.078ZM114.631 120.594C114.631 120.689 114.622 120.815 114.605 120.971H109.015C109.093 121.578 109.357 122.067 109.808 122.44C110.267 122.804 110.835 122.986 111.511 122.986C112.334 122.986 112.997 122.709 113.5 122.154L114.189 122.96C113.877 123.324 113.487 123.601 113.019 123.792C112.559 123.983 112.044 124.078 111.472 124.078C110.744 124.078 110.098 123.931 109.535 123.636C108.971 123.333 108.534 122.912 108.222 122.375C107.918 121.838 107.767 121.231 107.767 120.555C107.767 119.888 107.914 119.285 108.209 118.748C108.512 118.211 108.924 117.795 109.444 117.5C109.972 117.197 110.566 117.045 111.225 117.045C111.883 117.045 112.468 117.197 112.98 117.5C113.5 117.795 113.903 118.211 114.189 118.748C114.483 119.285 114.631 119.901 114.631 120.594ZM111.225 118.098C110.627 118.098 110.124 118.28 109.717 118.644C109.318 119.008 109.084 119.485 109.015 120.074H113.435C113.365 119.493 113.127 119.021 112.72 118.657C112.321 118.284 111.823 118.098 111.225 118.098Z" fill="black"/>
<path d="M70.58 146L67.88 142.1H67.72H64.9V146H61.66V132H67.72C68.96 132 70.0333 132.207 70.94 132.62C71.86 133.033 72.5667 133.62 73.06 134.38C73.5533 135.14 73.8 136.04 73.8 137.08C73.8 138.12 73.5467 139.02 73.04 139.78C72.5467 140.527 71.84 141.1 70.92 141.5L74.06 146H70.58ZM70.52 137.08C70.52 136.293 70.2667 135.693 69.76 135.28C69.2533 134.853 68.5133 134.64 67.54 134.64H64.9V139.52H67.54C68.5133 139.52 69.2533 139.307 69.76 138.88C70.2667 138.453 70.52 137.853 70.52 137.08ZM82.507 135.08C83.507 135.08 84.4137 135.313 85.227 135.78C86.0537 136.233 86.7004 136.88 87.167 137.72C87.6337 138.547 87.867 139.513 87.867 140.62C87.867 141.727 87.6337 142.7 87.167 143.54C86.7004 144.367 86.0537 145.013 85.227 145.48C84.4137 145.933 83.507 146.16 82.507 146.16C81.1337 146.16 80.0537 145.727 79.267 144.86V149.88H76.147V135.24H79.127V136.48C79.9004 135.547 81.027 135.08 82.507 135.08ZM81.967 143.6C82.767 143.6 83.4204 143.333 83.927 142.8C84.447 142.253 84.707 141.527 84.707 140.62C84.707 139.713 84.447 138.993 83.927 138.46C83.4204 137.913 82.767 137.64 81.967 137.64C81.167 137.64 80.507 137.913 79.987 138.46C79.4804 138.993 79.227 139.713 79.227 140.62C79.227 141.527 79.4804 142.253 79.987 142.8C80.507 143.333 81.167 143.6 81.967 143.6ZM90.9989 146.16C90.4522 146.16 89.9922 145.973 89.6189 145.6C89.2456 145.227 89.0589 144.76 89.0589 144.2C89.0589 143.627 89.2456 143.167 89.6189 142.82C89.9922 142.46 90.4522 142.28 90.9989 142.28C91.5456 142.28 92.0056 142.46 92.3789 142.82C92.7522 143.167 92.9389 143.627 92.9389 144.2C92.9389 144.76 92.7522 145.227 92.3789 145.6C92.0056 145.973 91.5456 146.16 90.9989 146.16ZM106.597 137.7C107.824 137.9 108.764 138.36 109.417 139.08C110.071 139.787 110.397 140.667 110.397 141.72C110.397 142.533 110.184 143.287 109.757 143.98C109.331 144.66 108.677 145.207 107.797 145.62C106.931 146.033 105.864 146.24 104.597 146.24C103.611 146.24 102.637 146.113 101.677 145.86C100.731 145.593 99.924 145.22 99.2573 144.74L100.517 142.26C101.051 142.66 101.664 142.973 102.357 143.2C103.064 143.413 103.784 143.52 104.517 143.52C105.331 143.52 105.971 143.367 106.437 143.06C106.904 142.74 107.137 142.293 107.137 141.72C107.137 140.573 106.264 140 104.517 140H103.037V137.86L105.917 134.6H99.9573V132H109.757V134.1L106.597 137.7ZM113.733 146.16C113.187 146.16 112.727 145.973 112.353 145.6C111.98 145.227 111.793 144.76 111.793 144.2C111.793 143.627 111.98 143.167 112.353 142.82C112.727 142.46 113.187 142.28 113.733 142.28C114.28 142.28 114.74 142.46 115.113 142.82C115.487 143.167 115.673 143.627 115.673 144.2C115.673 144.76 115.487 145.227 115.113 145.6C114.74 145.973 114.28 146.16 113.733 146.16ZM122.874 146.24C121.714 146.24 120.68 145.953 119.774 145.38C118.867 144.807 118.154 143.98 117.634 142.9C117.127 141.807 116.874 140.507 116.874 139C116.874 137.493 117.127 136.2 117.634 135.12C118.154 134.027 118.867 133.193 119.774 132.62C120.68 132.047 121.714 131.76 122.874 131.76C124.034 131.76 125.067 132.047 125.974 132.62C126.88 133.193 127.587 134.027 128.094 135.12C128.614 136.2 128.874 137.493 128.874 139C128.874 140.507 128.614 141.807 128.094 142.9C127.587 143.98 126.88 144.807 125.974 145.38C125.067 145.953 124.034 146.24 122.874 146.24ZM122.874 143.5C123.727 143.5 124.394 143.133 124.874 142.4C125.367 141.667 125.614 140.533 125.614 139C125.614 137.467 125.367 136.333 124.874 135.6C124.394 134.867 123.727 134.5 122.874 134.5C122.034 134.5 121.367 134.867 120.874 135.6C120.394 136.333 120.154 137.467 120.154 139C120.154 140.533 120.394 141.667 120.874 142.4C121.367 143.133 122.034 143.5 122.874 143.5ZM136.448 146.24C135.288 146.24 134.255 145.953 133.348 145.38C132.441 144.807 131.728 143.98 131.208 142.9C130.701 141.807 130.448 140.507 130.448 139C130.448 137.493 130.701 136.2 131.208 135.12C131.728 134.027 132.441 133.193 133.348 132.62C134.255 132.047 135.288 131.76 136.448 131.76C137.608 131.76 138.641 132.047 139.548 132.62C140.455 133.193 141.161 134.027 141.668 135.12C142.188 136.2 142.448 137.493 142.448 139C142.448 140.507 142.188 141.807 141.668 142.9C141.161 143.98 140.455 144.807 139.548 145.38C138.641 145.953 137.608 146.24 136.448 146.24ZM136.448 143.5C137.301 143.5 137.968 143.133 138.448 142.4C138.941 141.667 139.188 140.533 139.188 139C139.188 137.467 138.941 136.333 138.448 135.6C137.968 134.867 137.301 134.5 136.448 134.5C135.608 134.5 134.941 134.867 134.448 135.6C133.968 136.333 133.728 137.467 133.728 139C133.728 140.533 133.968 141.667 134.448 142.4C134.941 143.133 135.608 143.5 136.448 143.5ZM150.022 146.24C148.862 146.24 147.829 145.953 146.922 145.38C146.016 144.807 145.302 143.98 144.782 142.9C144.276 141.807 144.022 140.507 144.022 139C144.022 137.493 144.276 136.2 144.782 135.12C145.302 134.027 146.016 133.193 146.922 132.62C147.829 132.047 148.862 131.76 150.022 131.76C151.182 131.76 152.216 132.047 153.122 132.62C154.029 133.193 154.736 134.027 155.242 135.12C155.762 136.2 156.022 137.493 156.022 139C156.022 140.507 155.762 141.807 155.242 142.9C154.736 143.98 154.029 144.807 153.122 145.38C152.216 145.953 151.182 146.24 150.022 146.24ZM150.022 143.5C150.876 143.5 151.542 143.133 152.022 142.4C152.516 141.667 152.762 140.533 152.762 139C152.762 137.467 152.516 136.333 152.022 135.6C151.542 134.867 150.876 134.5 150.022 134.5C149.182 134.5 148.516 134.867 148.022 135.6C147.542 136.333 147.302 137.467 147.302 139C147.302 140.533 147.542 141.667 148.022 142.4C148.516 143.133 149.182 143.5 150.022 143.5ZM159.183 146.16C158.636 146.16 158.176 145.973 157.803 145.6C157.429 145.227 157.243 144.76 157.243 144.2C157.243 143.627 157.429 143.167 157.803 142.82C158.176 142.46 158.636 142.28 159.183 142.28C159.729 142.28 160.189 142.46 160.563 142.82C160.936 143.167 161.123 143.627 161.123 144.2C161.123 144.76 160.936 145.227 160.563 145.6C160.189 145.973 159.729 146.16 159.183 146.16ZM168.323 146.24C167.163 146.24 166.13 145.953 165.223 145.38C164.316 144.807 163.603 143.98 163.083 142.9C162.576 141.807 162.323 140.507 162.323 139C162.323 137.493 162.576 136.2 163.083 135.12C163.603 134.027 164.316 133.193 165.223 132.62C166.13 132.047 167.163 131.76 168.323 131.76C169.483 131.76 170.516 132.047 171.423 132.62C172.33 133.193 173.036 134.027 173.543 135.12C174.063 136.2 174.323 137.493 174.323 139C174.323 140.507 174.063 141.807 173.543 142.9C173.036 143.98 172.33 144.807 171.423 145.38C170.516 145.953 169.483 146.24 168.323 146.24ZM168.323 143.5C169.176 143.5 169.843 143.133 170.323 142.4C170.816 141.667 171.063 140.533 171.063 139C171.063 137.467 170.816 136.333 170.323 135.6C169.843 134.867 169.176 134.5 168.323 134.5C167.483 134.5 166.816 134.867 166.323 135.6C165.843 136.333 165.603 137.467 165.603 139C165.603 140.533 165.843 141.667 166.323 142.4C166.816 143.133 167.483 143.5 168.323 143.5ZM181.897 146.24C180.737 146.24 179.704 145.953 178.797 145.38C177.891 144.807 177.177 143.98 176.657 142.9C176.151 141.807 175.897 140.507 175.897 139C175.897 137.493 176.151 136.2 176.657 135.12C177.177 134.027 177.891 133.193 178.797 132.62C179.704 132.047 180.737 131.76 181.897 131.76C183.057 131.76 184.091 132.047 184.997 132.62C185.904 133.193 186.611 134.027 187.117 135.12C187.637 136.2 187.897 137.493 187.897 139C187.897 140.507 187.637 141.807 187.117 142.9C186.611 143.98 185.904 144.807 184.997 145.38C184.091 145.953 183.057 146.24 181.897 146.24ZM181.897 143.5C182.751 143.5 183.417 143.133 183.897 142.4C184.391 141.667 184.637 140.533 184.637 139C184.637 137.467 184.391 136.333 183.897 135.6C183.417 134.867 182.751 134.5 181.897 134.5C181.057 134.5 180.391 134.867 179.897 135.6C179.417 136.333 179.177 137.467 179.177 139C179.177 140.533 179.417 141.667 179.897 142.4C180.391 143.133 181.057 143.5 181.897 143.5ZM195.471 146.24C194.311 146.24 193.278 145.953 192.371 145.38C191.465 144.807 190.751 143.98 190.231 142.9C189.725 141.807 189.471 140.507 189.471 139C189.471 137.493 189.725 136.2 190.231 135.12C190.751 134.027 191.465 133.193 192.371 132.62C193.278 132.047 194.311 131.76 195.471 131.76C196.631 131.76 197.665 132.047 198.571 132.62C199.478 133.193 200.185 134.027 200.691 135.12C201.211 136.2 201.471 137.493 201.471 139C201.471 140.507 201.211 141.807 200.691 142.9C200.185 143.98 199.478 144.807 198.571 145.38C197.665 145.953 196.631 146.24 195.471 146.24ZM195.471 143.5C196.325 143.5 196.991 143.133 197.471 142.4C197.965 141.667 198.211 140.533 198.211 139C198.211 137.467 197.965 136.333 197.471 135.6C196.991 134.867 196.325 134.5 195.471 134.5C194.631 134.5 193.965 134.867 193.471 135.6C192.991 136.333 192.751 137.467 192.751 139C192.751 140.533 192.991 141.667 193.471 142.4C193.965 143.133 194.631 143.5 195.471 143.5Z" fill="black"/>
<circle cx="381.769" cy="106.692" r="2.69231" fill="#003EAA"/>
<circle cx="381.769" cy="122.847" r="2.69231" fill="#003EAA"/>
<circle cx="381.769" cy="139" r="2.69231" fill="#003EAA"/>
<circle cx="365.615" cy="106.692" r="2.69231" fill="#FF6505"/>
<circle cx="365.615" cy="122.847" r="2.69231" fill="#FF6505"/>
<circle cx="365.615" cy="139" r="2.69231" fill="#FF6505"/>
<circle cx="365.615" cy="155.154" r="2.69231" fill="#FF6505"/>
<circle cx="349.462" cy="106.692" r="2.69231" fill="#FF6505"/>
<circle cx="349.462" cy="122.847" r="2.69231" fill="#FF6505"/>
<circle cx="349.462" cy="139" r="2.69231" fill="#FF6505"/>
<circle cx="349.462" cy="155.154" r="2.69231" fill="#FF6505"/>
<circle cx="349.462" cy="171.308" r="2.69231" fill="#FF6505"/>
<circle cx="333.308" cy="106.692" r="2.69231" fill="#0054E6" fill-opacity="0.5"/>
<circle cx="333.308" cy="122.847" r="2.69231" fill="#0054E6" fill-opacity="0.5"/>
<circle cx="333.308" cy="139" r="2.69231" fill="#0054E6" fill-opacity="0.5"/>
<circle cx="333.308" cy="155.154" r="2.69231" fill="#0054E6" fill-opacity="0.5"/>
<circle cx="333.308" cy="171.308" r="2.69231" fill="#0054E6" fill-opacity="0.5"/>
<circle cx="317.154" cy="122.847" r="2.69231" fill="#0054E6" fill-opacity="0.5"/>
<circle cx="317.154" cy="139" r="2.69231" fill="#0054E6" fill-opacity="0.5"/>
<circle cx="317.154" cy="155.154" r="2.69231" fill="#0054E6" fill-opacity="0.5"/>
<circle cx="317.154" cy="171.308" r="2.69231" fill="#0054E6" fill-opacity="0.5"/>
<circle cx="301" cy="139" r="2.69231" fill="#0054E6" fill-opacity="0.2"/>
<circle cx="301" cy="155.154" r="2.69231" fill="#0054E6" fill-opacity="0.2"/>
<circle cx="301" cy="171.308" r="2.69231" fill="#0054E6" fill-opacity="0.2"/>
<circle cx="284.846" cy="155.154" r="2.69231" fill="#0054E6" fill-opacity="0.2"/>
<circle cx="284.846" cy="171.308" r="2.69231" fill="#0054E6" fill-opacity="0.2"/>
<circle cx="268.692" cy="171.308" r="2.69231" fill="#0054E6" fill-opacity="0.2"/>
<g filter="url(#filter1_d_377_4160)">
<rect x="55" y="159" width="107" height="22" rx="11" fill="white"/>
</g>
<path d="M90.1247 166.7V173H89.2247V170.192H85.6067V173H84.7067V166.7H85.6067V169.409H89.2247V166.7H90.1247ZM91.8844 168.23H92.7484V173H91.8844V168.23ZM92.3164 167.312C92.1484 167.312 92.0074 167.258 91.8934 167.15C91.7854 167.042 91.7314 166.91 91.7314 166.754C91.7314 166.598 91.7854 166.466 91.8934 166.358C92.0074 166.244 92.1484 166.187 92.3164 166.187C92.4844 166.187 92.6224 166.241 92.7304 166.349C92.8444 166.451 92.9014 166.58 92.9014 166.736C92.9014 166.898 92.8444 167.036 92.7304 167.15C92.6224 167.258 92.4844 167.312 92.3164 167.312ZM95.7661 173.054C95.3761 173.054 95.0011 173.003 94.6411 172.901C94.2811 172.793 93.9991 172.658 93.7951 172.496L94.1551 171.812C94.3651 171.962 94.6201 172.082 94.9201 172.172C95.2201 172.262 95.5231 172.307 95.8291 172.307C96.5851 172.307 96.9631 172.091 96.9631 171.659C96.9631 171.515 96.9121 171.401 96.8101 171.317C96.7081 171.233 96.5791 171.173 96.4231 171.137C96.2731 171.095 96.0571 171.05 95.7751 171.002C95.3911 170.942 95.0761 170.873 94.8301 170.795C94.5901 170.717 94.3831 170.585 94.2091 170.399C94.0351 170.213 93.9481 169.952 93.9481 169.616C93.9481 169.184 94.1281 168.839 94.4881 168.581C94.8481 168.317 95.3311 168.185 95.9371 168.185C96.2551 168.185 96.5731 168.224 96.8911 168.302C97.2091 168.38 97.4701 168.485 97.6741 168.617L97.3051 169.301C96.9151 169.049 96.4561 168.923 95.9281 168.923C95.5621 168.923 95.2831 168.983 95.0911 169.103C94.8991 169.223 94.8031 169.382 94.8031 169.58C94.8031 169.736 94.8571 169.859 94.9651 169.949C95.0731 170.039 95.2051 170.105 95.3611 170.147C95.5231 170.189 95.7481 170.237 96.0361 170.291C96.4201 170.357 96.7291 170.429 96.9631 170.507C97.2031 170.579 97.4071 170.705 97.5751 170.885C97.7431 171.065 97.8271 171.317 97.8271 171.641C97.8271 172.073 97.6411 172.418 97.2691 172.676C96.9031 172.928 96.4021 173.054 95.7661 173.054ZM101.589 172.721C101.463 172.829 101.307 172.913 101.121 172.973C100.935 173.027 100.743 173.054 100.545 173.054C100.065 173.054 99.6929 172.925 99.4289 172.667C99.1649 172.409 99.0329 172.04 99.0329 171.56V168.941H98.2229V168.23H99.0329V167.186H99.8969V168.23H101.265V168.941H99.8969V171.524C99.8969 171.782 99.9599 171.98 100.086 172.118C100.218 172.256 100.404 172.325 100.644 172.325C100.908 172.325 101.133 172.25 101.319 172.1L101.589 172.721ZM104.518 173.054C104.044 173.054 103.618 172.949 103.24 172.739C102.862 172.529 102.565 172.241 102.349 171.875C102.139 171.503 102.034 171.083 102.034 170.615C102.034 170.147 102.139 169.73 102.349 169.364C102.565 168.992 102.862 168.704 103.24 168.5C103.618 168.29 104.044 168.185 104.518 168.185C104.992 168.185 105.415 168.29 105.787 168.5C106.165 168.704 106.459 168.992 106.669 169.364C106.885 169.73 106.993 170.147 106.993 170.615C106.993 171.083 106.885 171.503 106.669 171.875C106.459 172.241 106.165 172.529 105.787 172.739C105.415 172.949 104.992 173.054 104.518 173.054ZM104.518 172.298C104.824 172.298 105.097 172.229 105.337 172.091C105.583 171.947 105.775 171.749 105.913 171.497C106.051 171.239 106.12 170.945 106.12 170.615C106.12 170.285 106.051 169.994 105.913 169.742C105.775 169.484 105.583 169.286 105.337 169.148C105.097 169.01 104.824 168.941 104.518 168.941C104.212 168.941 103.936 169.01 103.69 169.148C103.45 169.286 103.258 169.484 103.114 169.742C102.976 169.994 102.907 170.285 102.907 170.615C102.907 170.945 102.976 171.239 103.114 171.497C103.258 171.749 103.45 171.947 103.69 172.091C103.936 172.229 104.212 172.298 104.518 172.298ZM109.016 169.031C109.166 168.755 109.388 168.545 109.682 168.401C109.976 168.257 110.333 168.185 110.753 168.185V169.022C110.705 169.016 110.639 169.013 110.555 169.013C110.087 169.013 109.718 169.154 109.448 169.436C109.184 169.712 109.052 170.108 109.052 170.624V173H108.188V168.23H109.016V169.031ZM111.818 168.23H112.682V173H111.818V168.23ZM112.25 167.312C112.082 167.312 111.941 167.258 111.827 167.15C111.719 167.042 111.665 166.91 111.665 166.754C111.665 166.598 111.719 166.466 111.827 166.358C111.941 166.244 112.082 166.187 112.25 166.187C112.418 166.187 112.556 166.241 112.664 166.349C112.778 166.451 112.835 166.58 112.835 166.736C112.835 166.898 112.778 167.036 112.664 167.15C112.556 167.258 112.418 167.312 112.25 167.312ZM118.126 167.483H115.966V166.7H121.177V167.483H119.017V173H118.126V167.483ZM123.582 173.054C123.108 173.054 122.682 172.949 122.304 172.739C121.926 172.529 121.629 172.241 121.413 171.875C121.203 171.503 121.098 171.083 121.098 170.615C121.098 170.147 121.203 169.73 121.413 169.364C121.629 168.992 121.926 168.704 122.304 168.5C122.682 168.29 123.108 168.185 123.582 168.185C124.056 168.185 124.479 168.29 124.851 168.5C125.229 168.704 125.523 168.992 125.733 169.364C125.949 169.73 126.057 170.147 126.057 170.615C126.057 171.083 125.949 171.503 125.733 171.875C125.523 172.241 125.229 172.529 124.851 172.739C124.479 172.949 124.056 173.054 123.582 173.054ZM123.582 172.298C123.888 172.298 124.161 172.229 124.401 172.091C124.647 171.947 124.839 171.749 124.977 171.497C125.115 171.239 125.184 170.945 125.184 170.615C125.184 170.285 125.115 169.994 124.977 169.742C124.839 169.484 124.647 169.286 124.401 169.148C124.161 169.01 123.888 168.941 123.582 168.941C123.276 168.941 123 169.01 122.754 169.148C122.514 169.286 122.322 169.484 122.178 169.742C122.04 169.994 121.971 170.285 121.971 170.615C121.971 170.945 122.04 171.239 122.178 171.497C122.322 171.749 122.514 171.947 122.754 172.091C123 172.229 123.276 172.298 123.582 172.298ZM129.781 168.185C130.243 168.185 130.657 168.287 131.023 168.491C131.389 168.695 131.674 168.98 131.878 169.346C132.088 169.712 132.193 170.135 132.193 170.615C132.193 171.095 132.088 171.521 131.878 171.893C131.674 172.259 131.389 172.544 131.023 172.748C130.657 172.952 130.243 173.054 129.781 173.054C129.439 173.054 129.124 172.988 128.836 172.856C128.554 172.724 128.314 172.532 128.116 172.28V174.746H127.252V168.23H128.08V168.986C128.272 168.722 128.515 168.524 128.809 168.392C129.103 168.254 129.427 168.185 129.781 168.185ZM129.709 172.298C130.015 172.298 130.288 172.229 130.528 172.091C130.774 171.947 130.966 171.749 131.104 171.497C131.248 171.239 131.32 170.945 131.32 170.615C131.32 170.285 131.248 169.994 131.104 169.742C130.966 169.484 130.774 169.286 130.528 169.148C130.288 169.01 130.015 168.941 129.709 168.941C129.409 168.941 129.136 169.013 128.89 169.157C128.65 169.295 128.458 169.49 128.314 169.742C128.176 169.994 128.107 170.285 128.107 170.615C128.107 170.945 128.176 171.239 128.314 171.497C128.452 171.749 128.644 171.947 128.89 172.091C129.136 172.229 129.409 172.298 129.709 172.298ZM138.539 173.072C137.699 173.072 137.045 172.832 136.577 172.352C136.109 171.872 135.875 171.182 135.875 170.282V166.7H136.775V170.246C136.775 171.596 137.366 172.271 138.548 172.271C139.124 172.271 139.565 172.106 139.871 171.776C140.177 171.44 140.33 170.93 140.33 170.246V166.7H141.203V170.282C141.203 171.188 140.969 171.881 140.501 172.361C140.033 172.835 139.379 173.072 138.539 173.072ZM145.452 168.185C145.914 168.185 146.328 168.287 146.694 168.491C147.06 168.695 147.345 168.98 147.549 169.346C147.759 169.712 147.864 170.135 147.864 170.615C147.864 171.095 147.759 171.521 147.549 171.893C147.345 172.259 147.06 172.544 146.694 172.748C146.328 172.952 145.914 173.054 145.452 173.054C145.11 173.054 144.795 172.988 144.507 172.856C144.225 172.724 143.985 172.532 143.787 172.28V174.746H142.923V168.23H143.751V168.986C143.943 168.722 144.186 168.524 144.48 168.392C144.774 168.254 145.098 168.185 145.452 168.185ZM145.38 172.298C145.686 172.298 145.959 172.229 146.199 172.091C146.445 171.947 146.637 171.749 146.775 171.497C146.919 171.239 146.991 170.945 146.991 170.615C146.991 170.285 146.919 169.994 146.775 169.742C146.637 169.484 146.445 169.286 146.199 169.148C145.959 169.01 145.686 168.941 145.38 168.941C145.08 168.941 144.807 169.013 144.561 169.157C144.321 169.295 144.129 169.49 143.985 169.742C143.847 169.994 143.778 170.285 143.778 170.615C143.778 170.945 143.847 171.239 143.985 171.497C144.123 171.749 144.315 171.947 144.561 172.091C144.807 172.229 145.08 172.298 145.38 172.298Z" fill="#90929F"/>
<path d="M72.17 164C73.865 164 75 165.19 75 166.96V171.045C75 172.81 73.865 174 72.17 174H67.835C66.14 174 65 172.81 65 171.045V166.96C65 165.19 66.14 164 67.835 164H72.17ZM69.995 168.24C69.755 168.24 69.56 168.44 69.56 168.68V170.89C69.56 171.13 69.755 171.325 69.995 171.325C70.24 171.325 70.435 171.13 70.435 170.89V168.68C70.435 168.44 70.24 168.24 69.995 168.24ZM70.005 166.655C69.76 166.655 69.565 166.85 69.565 167.095C69.565 167.335 69.76 167.53 69.995 167.53C70.245 167.53 70.44 167.335 70.44 167.095C70.44 166.85 70.245 166.655 70.005 166.655Z" fill="#FF6505"/>
<defs>
<filter id="filter0_d_377_4160" x="36" y="86" width="365" height="111" filterUnits="userSpaceOnUse" color-interpolation-filters="sRGB">
<feFlood flood-opacity="0" result="BackgroundImageFix"/>
<feColorMatrix in="SourceAlpha" type="matrix" values="0 0 0 0 0 0 0 0 0 0 0 0 0 0 0 0 0 0 127 0" result="hardAlpha"/>
<feOffset/>
<feGaussianBlur stdDeviation="3"/>
<feComposite in2="hardAlpha" operator="out"/>
<feColorMatrix type="matrix" values="0 0 0 0 0 0 0 0 0 0 0 0 0 0 0 0 0 0 0.05 0"/>
<feBlend mode="normal" in2="BackgroundImageFix" result="effect1_dropShadow_377_4160"/>
<feBlend mode="normal" in="SourceGraphic" in2="effect1_dropShadow_377_4160" result="shape"/>
</filter>
<filter id="filter1_d_377_4160" x="50" y="154" width="117" height="32" filterUnits="userSpaceOnUse" color-interpolation-filters="sRGB">
<feFlood flood-opacity="0" result="BackgroundImageFix"/>
<feColorMatrix in="SourceAlpha" type="matrix" values="0 0 0 0 0 0 0 0 0 0 0 0 0 0 0 0 0 0 127 0" result="hardAlpha"/>
<feOffset/>
<feGaussianBlur stdDeviation="2.5"/>
<feComposite in2="hardAlpha" operator="out"/>
<feColorMatrix type="matrix" values="0 0 0 0 0 0 0 0 0 0 0 0 0 0 0 0 0 0 0.25 0"/>
<feBlend mode="normal" in2="BackgroundImageFix" result="effect1_dropShadow_377_4160"/>
<feBlend mode="normal" in="SourceGraphic" in2="effect1_dropShadow_377_4160" result="shape"/>
</filter>
</defs>
</svg>
