<svg width="213" height="63" viewBox="0 0 213 63" fill="none" xmlns="http://www.w3.org/2000/svg">
<g clip-path="url(#clip0_375_1893)">
<path d="M130.34 29.35C129.31 29.3503 128.283 29.2565 127.27 29.07C126.344 28.9014 125.438 28.6331 124.57 28.27C123.79 27.9466 123.055 27.5266 122.38 27.02L123.51 24.09C124.141 24.5287 124.811 24.9102 125.51 25.23C126.236 25.5596 126.998 25.8046 127.78 25.96C128.616 26.1317 129.467 26.2155 130.32 26.21C131.486 26.3014 132.652 26.0327 133.66 25.44C133.978 25.2141 134.235 24.9135 134.409 24.5648C134.584 24.216 134.67 23.8298 134.66 23.44C134.673 23.0331 134.561 22.6319 134.34 22.29C134.073 21.922 133.71 21.6348 133.29 21.46C132.68 21.1869 132.038 20.992 131.38 20.88L128.18 20.21C126.643 19.9623 125.213 19.2666 124.07 18.21C123.611 17.7236 123.253 17.1499 123.02 16.5229C122.786 15.8959 122.681 15.2285 122.71 14.56C122.678 13.3685 123.028 12.198 123.71 11.22C124.429 10.2378 125.404 9.47304 126.53 9.01004C127.846 8.45918 129.263 8.19006 130.69 8.22003C131.594 8.22094 132.495 8.31477 133.38 8.50003C134.204 8.66883 135.004 8.94098 135.76 9.31002C136.455 9.64543 137.095 10.0837 137.66 10.61L136.53 13.4C135.739 12.7338 134.835 12.2155 133.86 11.87C132.83 11.5205 131.748 11.348 130.66 11.36C129.876 11.3432 129.096 11.4721 128.36 11.74C127.781 11.9492 127.271 12.3164 126.89 12.8C126.554 13.2689 126.379 13.8336 126.39 14.41C126.376 14.7234 126.431 15.036 126.55 15.3261C126.669 15.6162 126.85 15.8769 127.08 16.09C127.781 16.6163 128.603 16.9599 129.47 17.09L132.64 17.76C134.212 18.0072 135.69 18.67 136.92 19.68C137.391 20.1247 137.761 20.6658 138.004 21.2663C138.248 21.8668 138.359 22.5127 138.33 23.16C138.35 24.3158 137.999 25.4475 137.33 26.39C136.618 27.3609 135.648 28.1127 134.53 28.56C133.198 29.0941 131.775 29.3625 130.34 29.35Z" fill="#10659B"/>
<path d="M141.33 29.06V14.87H144.88V17.72H144.6C144.82 17.0969 145.16 16.5228 145.6 16.03C146.053 15.5654 146.598 15.2009 147.2 14.96C147.856 14.7018 148.555 14.5728 149.26 14.58C150.265 14.5349 151.256 14.8232 152.08 15.4C152.86 16.0202 153.398 16.8942 153.6 17.87H153.2C153.559 16.873 154.233 16.02 155.12 15.44C156.034 14.8401 157.107 14.5299 158.2 14.55C159.138 14.5176 160.067 14.7387 160.89 15.19C161.613 15.6441 162.168 16.3218 162.47 17.12C162.848 18.1674 163.025 19.2769 162.99 20.39V29.06H159.36V20.54C159.425 19.7103 159.236 18.8806 158.82 18.16C158.604 17.8912 158.325 17.6808 158.007 17.548C157.689 17.4153 157.343 17.3643 157 17.4C156.427 17.3867 155.864 17.5433 155.38 17.85C154.902 18.1607 154.532 18.6112 154.32 19.14C154.061 19.7742 153.935 20.455 153.95 21.14V29.02H150.32V20.5C150.385 19.6703 150.196 18.8406 149.78 18.12C149.571 17.8515 149.297 17.6408 148.984 17.5078C148.67 17.3748 148.328 17.3239 147.99 17.36C147.411 17.3439 146.84 17.5006 146.35 17.81C145.899 18.1337 145.551 18.582 145.35 19.1C145.091 19.7343 144.965 20.415 144.98 21.1V28.98L141.33 29.06Z" fill="#10659B"/>
<path d="M171.44 29.3501C170.492 29.3668 169.554 29.1613 168.7 28.7501C167.937 28.3934 167.284 27.8371 166.81 27.1401C166.35 26.4622 166.109 25.6594 166.12 24.8401C166.073 23.9399 166.366 23.055 166.94 22.3601C167.662 21.6556 168.584 21.1911 169.58 21.0301C171.198 20.7269 172.844 20.5928 174.49 20.6301H175.95V22.7201H174.52C173.755 22.7117 172.991 22.7451 172.23 22.8201C171.719 22.8678 171.216 22.9752 170.73 23.1401C170.403 23.2495 170.12 23.4596 169.92 23.7401C169.744 24.0173 169.657 24.3419 169.67 24.6701C169.659 24.965 169.713 25.2587 169.829 25.5302C169.945 25.8016 170.119 26.0441 170.34 26.2401C170.861 26.6716 171.525 26.8896 172.2 26.8501C172.798 26.8608 173.386 26.7049 173.9 26.4001C174.394 26.0959 174.801 25.6687 175.08 25.1601C175.377 24.6074 175.525 23.9872 175.51 23.3601V20.0201C175.582 19.2631 175.352 18.5082 174.87 17.9201C174.263 17.4368 173.493 17.2074 172.72 17.2801C171.893 17.2885 171.072 17.413 170.28 17.6501C169.392 17.9126 168.541 18.2891 167.75 18.7701L166.7 16.3001C167.257 15.9222 167.858 15.6133 168.49 15.3801C169.199 15.117 169.928 14.913 170.67 14.7701C171.385 14.6272 172.111 14.5535 172.84 14.5501C174.02 14.5122 175.193 14.7306 176.28 15.1901C177.144 15.5918 177.848 16.2713 178.28 17.1201C178.765 18.1612 178.994 19.3026 178.95 20.4501V29.0601H175.6V26.0601H175.83C175.715 26.7046 175.44 27.3099 175.03 27.8201C174.636 28.3205 174.124 28.7156 173.54 28.9701C172.876 29.2464 172.159 29.3761 171.44 29.3501Z" fill="#10659B"/>
<path d="M182.66 29.06V14.87H186.21V18.3H185.92C186.119 17.251 186.687 16.3076 187.52 15.64C188.45 14.9832 189.552 14.6146 190.69 14.58L191.79 14.49L192.02 17.58L189.93 17.78C188.94 17.8177 187.994 18.2037 187.26 18.87C186.943 19.2151 186.699 19.6206 186.543 20.0622C186.387 20.5038 186.321 20.9724 186.35 21.44V29.09L182.66 29.06Z" fill="#10659B"/>
<path d="M200.6 29.3501C199.832 29.4109 199.059 29.3155 198.329 29.0698C197.598 28.824 196.925 28.4329 196.35 27.9201C195.856 27.3544 195.479 26.6964 195.24 25.9841C195.001 25.2718 194.906 24.5194 194.96 23.7701V17.5701H192.23V14.8701H194.96V10.6301H198.6V14.8701H202.9V17.6001H198.6V23.6001C198.548 24.3503 198.764 25.0946 199.21 25.7001C199.474 25.9527 199.789 26.1451 200.134 26.2642C200.48 26.3833 200.847 26.4263 201.21 26.3901C201.493 26.3903 201.775 26.3567 202.05 26.2901L202.95 26.0701L203.51 28.7501C203.092 28.9681 202.644 29.1231 202.18 29.2101C201.66 29.3165 201.13 29.3635 200.6 29.3501Z" fill="#10659B"/>
<path d="M130.6 53.8701C129.57 53.8703 128.543 53.7766 127.53 53.5901C126.603 53.4242 125.697 53.1559 124.83 52.7901C124.048 52.465 123.309 52.0452 122.63 51.5401L123.77 48.6001C124.399 49.0456 125.068 49.4306 125.77 49.7501C126.494 50.0752 127.252 50.32 128.03 50.48C128.87 50.6463 129.724 50.73 130.58 50.73C131.746 50.8202 132.911 50.5515 133.92 49.9601C134.238 49.7341 134.495 49.4336 134.669 49.0848C134.844 48.7361 134.93 48.3498 134.92 47.9601C134.931 47.5565 134.819 47.1591 134.6 46.8201C134.328 46.4565 133.966 46.1704 133.55 45.9901C132.937 45.7156 132.292 45.5207 131.63 45.4101L128.43 44.7401C126.893 44.4924 125.463 43.7967 124.32 42.7401C123.862 42.2528 123.507 41.6787 123.275 41.0518C123.043 40.4249 122.939 39.7578 122.97 39.0901C122.938 37.8985 123.288 36.728 123.97 35.7501C124.686 34.7656 125.663 34.0003 126.79 33.5401C128.103 32.9892 129.516 32.72 130.94 32.7501C131.844 32.7455 132.746 32.8394 133.63 33.0301C134.458 33.1981 135.261 33.4702 136.02 33.8401C136.711 34.1781 137.351 34.6124 137.92 35.1301L136.79 37.9301C135.995 37.2637 135.088 36.7455 134.11 36.4001C133.08 36.0498 131.998 35.8773 130.91 35.8901C130.13 35.8731 129.353 36.002 128.62 36.2701C128.039 36.4754 127.528 36.8433 127.15 37.3301C126.807 37.7957 126.628 38.3618 126.64 38.9401C126.625 39.253 126.68 39.5654 126.801 39.8544C126.922 40.1433 127.106 40.4015 127.34 40.6101C128.035 41.1408 128.854 41.485 129.72 41.6101L132.89 42.2801C134.465 42.5221 135.946 43.1817 137.18 44.1901C137.65 44.6375 138.019 45.1805 138.263 45.7824C138.506 46.3844 138.617 47.0314 138.59 47.6801C138.607 48.8355 138.257 49.9667 137.59 50.9101C136.876 51.8832 135.902 52.6352 134.78 53.0801C133.451 53.6129 132.031 53.8812 130.6 53.8701Z" fill="#10659B"/>
<path d="M148.12 53.8701C146.763 53.8992 145.421 53.5826 144.22 52.9501C143.13 52.3525 142.24 51.4485 141.66 50.3501C141.037 49.1283 140.728 47.7709 140.76 46.4001C140.723 45.0414 141.033 43.6958 141.66 42.4901C142.243 41.4114 143.134 40.5307 144.22 39.9601C145.426 39.3444 146.766 39.0386 148.12 39.0701C149.037 39.0729 149.949 39.2215 150.82 39.5101C151.635 39.7554 152.388 40.1713 153.03 40.7301L151.95 43.2601C151.453 42.8207 150.875 42.4812 150.25 42.2601C149.672 42.038 149.059 41.9195 148.44 41.9101C147.896 41.8763 147.351 41.9647 146.846 42.1689C146.341 42.3731 145.888 42.6879 145.52 43.0901C144.786 44.0458 144.43 45.2384 144.52 46.4401C144.439 47.6531 144.794 48.855 145.52 49.8301C145.879 50.2466 146.329 50.5751 146.835 50.7901C147.342 51.0051 147.891 51.1009 148.44 51.0701C149.055 51.0579 149.664 50.9395 150.24 50.7201C150.875 50.4892 151.457 50.132 151.95 49.6701L153.03 52.2301C152.373 52.7706 151.62 53.1813 150.81 53.4401C149.941 53.7219 149.033 53.8669 148.12 53.8701Z" fill="#10659B"/>
<path d="M155.27 53.55V33.0601H158.9V42.1901H158.49C158.878 41.2093 159.582 40.3858 160.49 39.8501C161.423 39.3128 162.483 39.0364 163.56 39.05C164.54 39.0104 165.513 39.2313 166.38 39.6901C167.129 40.1355 167.712 40.8131 168.04 41.6201C168.44 42.6557 168.63 43.7603 168.6 44.8701V53.5301H164.97V45.0701C164.987 44.4548 164.892 43.8415 164.69 43.2601C164.53 42.8421 164.234 42.49 163.85 42.2601C163.408 42.025 162.911 41.9111 162.41 41.9301C161.771 41.9149 161.139 42.0702 160.58 42.3801C160.057 42.6783 159.633 43.1233 159.36 43.6601C159.057 44.2574 158.906 44.9203 158.92 45.5901V53.5901L155.27 53.55Z" fill="#10659B"/>
<path d="M178.75 53.8701C177.416 53.9051 176.096 53.5914 174.92 52.9601C173.841 52.3725 172.961 51.4781 172.39 50.3901C171.766 49.1725 171.456 47.818 171.49 46.4501C171.455 45.0884 171.764 43.74 172.39 42.5301C172.964 41.4468 173.844 40.5564 174.92 39.9701C176.098 39.3465 177.417 39.0365 178.75 39.0701C180.086 39.0366 181.408 39.3465 182.59 39.9701C183.664 40.5592 184.544 41.4489 185.12 42.5301C185.746 43.74 186.055 45.0884 186.02 46.4501C186.054 47.818 185.744 49.1725 185.12 50.3901C184.547 51.476 183.667 52.3697 182.59 52.9601C181.411 53.5914 180.087 53.905 178.75 53.8701ZM178.75 51.1001C179.247 51.1178 179.742 51.0216 180.196 50.8188C180.65 50.616 181.051 50.312 181.37 49.9301C182.101 48.9231 182.455 47.6914 182.37 46.4501C182.461 45.2112 182.106 43.9805 181.37 42.9801C181.049 42.6023 180.646 42.3025 180.192 42.1033C179.739 41.9041 179.245 41.8106 178.75 41.8301C178.256 41.8122 177.765 41.9063 177.313 42.1055C176.861 42.3047 176.46 42.6037 176.14 42.9801C175.404 43.9805 175.049 45.2112 175.14 46.4501C175.055 47.6914 175.409 48.9231 176.14 49.9301C176.459 50.3076 176.86 50.6074 177.312 50.8067C177.764 51.006 178.256 51.0994 178.75 51.0801V51.1001Z" fill="#10659B"/>
<path d="M195.49 53.8699C194.156 53.905 192.836 53.5913 191.66 52.9599C190.581 52.3724 189.701 51.478 189.13 50.3899C188.506 49.1724 188.196 47.8178 188.23 46.4499C188.195 45.0883 188.505 43.7399 189.13 42.53C189.704 41.4466 190.584 40.5563 191.66 39.97C192.839 39.3463 194.157 39.0364 195.49 39.07C196.826 39.0356 198.149 39.3455 199.33 39.97C200.407 40.5563 201.287 41.4466 201.86 42.53C202.486 43.7399 202.795 45.0883 202.76 46.4499C202.794 47.8178 202.485 49.1724 201.86 50.3899C201.29 51.478 200.409 52.3724 199.33 52.9599C198.151 53.5926 196.828 53.9063 195.49 53.8699ZM195.49 51.1C195.987 51.1177 196.482 51.0215 196.936 50.8187C197.39 50.6159 197.792 50.3119 198.11 49.9299C198.841 48.9229 199.195 47.6913 199.11 46.4499C199.201 45.211 198.847 43.9804 198.11 42.9799C197.789 42.6022 197.387 42.3024 196.933 42.1032C196.479 41.9039 195.986 41.8105 195.49 41.8299C194.997 41.812 194.505 41.9062 194.053 42.1054C193.601 42.3046 193.2 42.6036 192.88 42.9799C192.144 43.9804 191.789 45.211 191.88 46.4499C191.796 47.6913 192.149 48.9229 192.88 49.9299C193.199 50.3075 193.6 50.6073 194.052 50.8066C194.505 51.0058 194.996 51.0993 195.49 51.0799V51.1Z" fill="#10659B"/>
<path d="M210.7 53.8701C210.014 53.9268 209.323 53.8327 208.677 53.5943C208.031 53.3559 207.445 52.979 206.96 52.4901C206.085 51.325 205.659 49.8836 205.76 48.4301V33.0601H209.39V48.2401C209.375 48.7288 209.46 49.2154 209.64 49.67C209.777 50.0429 210.039 50.3572 210.38 50.5601C210.75 50.7748 211.173 50.8822 211.6 50.8701H212.24C212.446 50.8488 212.65 50.8121 212.85 50.7601L212.79 53.6301C212.44 53.7101 212.1 53.7701 211.79 53.8201C211.429 53.8638 211.064 53.8805 210.7 53.8701Z" fill="#10659B"/>
<path d="M105.68 21.75L113.68 19.22L56.83 0L-0.0200195 19.22L19.08 25.22L22.03 26.16H22.11L24.98 26.94L39.92 31.01L33.31 29.7L24.98 28.06V57.46L46.03 60.64V57.37L45.03 51.08C44.7457 50.5144 44.411 49.9755 44.03 49.47C43.7338 49.5306 43.4323 49.5608 43.13 49.56C41.9239 49.5416 40.7732 49.0503 39.9259 48.1917C39.0786 47.3332 38.6025 46.1762 38.6 44.97C38.6 43.7517 39.0833 42.5832 39.9438 41.7208C40.8043 40.8584 41.9717 40.3726 43.19 40.37C43.7941 40.37 44.3922 40.489 44.9503 40.7202C45.5084 40.9513 46.0155 41.2902 46.4427 41.7173C46.8698 42.1445 47.2086 42.6516 47.4398 43.2097C47.671 43.7678 47.79 44.3659 47.79 44.97C47.7794 45.6675 47.6047 46.3527 47.28 46.97C49.0806 49.3889 50.0522 52.3245 50.05 55.34V61.26L55.42 62.07V32.06C54.6093 31.6993 53.9202 31.1118 53.4359 30.3684C52.9515 29.6249 52.6924 28.7573 52.69 27.87C52.6943 27.5051 52.7447 27.1423 52.84 26.79C52.9895 26.1649 53.2701 25.5787 53.6632 25.0702C54.0562 24.5616 54.5528 24.1423 55.12 23.84C55.7844 23.4718 56.5304 23.2759 57.29 23.27C58.0527 23.2759 58.802 23.4718 59.47 23.84C60.0356 24.1443 60.5309 24.5642 60.9237 25.0725C61.3165 25.5807 61.598 26.1659 61.75 26.79C61.8371 27.1436 61.8841 27.5059 61.89 27.87C61.8779 28.694 61.6452 29.4996 61.216 30.2031C60.7869 30.9066 60.1771 31.4822 59.45 31.87V62.07L64.6 61.26V55.35C64.5978 52.3345 65.5693 49.3988 67.37 46.98C67.0452 46.3626 66.8705 45.6775 66.86 44.98C66.86 44.3759 66.979 43.7778 67.2101 43.2197C67.4413 42.6616 67.7801 42.1544 68.2073 41.7273C68.6344 41.3001 69.1415 40.9613 69.6996 40.7302C70.2577 40.499 70.8559 40.38 71.46 40.38C72.6782 40.3827 73.8457 40.8685 74.7062 41.7308C75.5667 42.5932 76.05 43.7617 76.05 44.98C76.0473 46.1965 75.5629 47.3625 74.7027 48.2227C73.8424 49.0829 72.6765 49.5674 71.46 49.57C71.1577 49.5708 70.8561 49.5406 70.56 49.48C70.1789 49.9855 69.8442 50.5244 69.56 51.09L68.56 57.38V60.68L88.56 57.53V28.13L80.24 29.77L73.63 31.08L88.56 27.01L91.44 26.23H91.51L94.46 25.29L104.78 22.03V44.22L103.01 44.14V51.38L104.93 49.46L106.68 51.2V44.31L105.55 44.26L105.68 21.75Z" fill="#FF6505"/>
<path d="M43.22 41.7601C42.3704 41.7627 41.5565 42.1021 40.9567 42.7038C40.3568 43.3055 40.02 44.1204 40.02 44.9701C40.0235 45.7818 40.3353 46.5618 40.8923 47.1522C41.4493 47.7427 42.2099 48.0993 43.02 48.1501C43.0966 48.1549 43.1734 48.1549 43.25 48.1501C43.7153 48.1596 44.1768 48.0639 44.6 47.8701C44.799 47.7784 44.9869 47.6643 45.16 47.5301C45.7283 47.1051 46.1398 46.5037 46.33 45.8201C46.4056 45.5463 46.4459 45.264 46.45 44.98C46.4513 44.556 46.3686 44.1359 46.2066 43.7439C46.0447 43.352 45.8066 42.9961 45.5063 42.6967C45.206 42.3973 44.8493 42.1603 44.4569 41.9996C44.0645 41.8388 43.6441 41.7574 43.22 41.7601Z" fill="#FF6505"/>
<path d="M69.5999 47.52C69.773 47.6543 69.9609 47.7684 70.1599 47.86C70.5828 48.0691 71.048 48.1786 71.5199 48.18C71.5965 48.1849 71.6733 48.1849 71.7498 48.18C72.56 48.1293 73.3205 47.7726 73.8775 47.1822C74.4345 46.5918 74.7464 45.8117 74.7498 45C74.7499 44.1504 74.413 43.3354 73.8132 42.7337C73.2134 42.132 72.3995 41.7927 71.5499 41.79C70.6985 41.79 69.882 42.1282 69.28 42.7302C68.678 43.3322 68.3398 44.1487 68.3398 45C68.344 45.284 68.3843 45.5663 68.4598 45.84C68.6481 46.5086 69.0481 47.0981 69.5999 47.52Z" fill="#FF6505"/>
<path d="M60.3299 26.87C60.1097 26.2494 59.7035 25.7119 59.1666 25.3307C58.6297 24.9495 57.9883 24.7432 57.3299 24.74C56.6718 24.7447 56.0311 24.9515 55.4944 25.3325C54.9578 25.7135 54.5513 26.2502 54.3299 26.87C54.2022 27.2125 54.1346 27.5745 54.1299 27.94C54.1313 28.4485 54.2536 28.9495 54.4865 29.4015C54.7195 29.8535 55.0565 30.2438 55.4699 30.54C56.0134 30.9352 56.6678 31.1487 57.3399 31.15H57.4799C58.2244 31.1131 58.9323 30.8158 59.4799 30.31C59.8103 30.012 60.0744 29.6479 60.2553 29.2414C60.4362 28.8349 60.5297 28.3949 60.5299 27.95C60.5264 27.5811 60.4587 27.2157 60.3299 26.87Z" fill="#FF6505"/>
</g>
<defs>
<clipPath id="clip0_375_1893">
<rect width="212.85" height="62.12" fill="white"/>
</clipPath>
</defs>
</svg>
