<svg width="1200" height="972" viewBox="0 0 1200 972" fill="none" xmlns="http://www.w3.org/2000/svg">
<g filter="url(#filter0_f_302_9)">
<path d="M1083 512C1083 613.068 1004.07 695 906.704 695C809.338 695 743.5 613.068 743.5 512C743.5 410.932 809.338 329 906.704 329C1004.07 329 1083 410.932 1083 512Z" fill="#00FDEE"/>
</g>
<g filter="url(#filter1_f_302_9)">
<path d="M728 503C728 583.634 662.319 649 581.296 649C500.274 649 495 583.634 495 503C495 422.366 500.274 357 581.296 357C662.319 357 728 422.366 728 503Z" fill="#E895FF"/>
</g>
<g filter="url(#filter2_f_302_9)">
<path d="M532 423C532 503.634 466.319 569 385.296 569C304.274 569 299 503.634 299 423C299 342.366 304.274 277 385.296 277C466.319 277 532 342.366 532 423Z" fill="#FCCE88"/>
</g>
<g filter="url(#filter3_f_302_9)">
<path d="M349 525C349 605.634 283.319 671 202.296 671C121.274 671 116 605.634 116 525C116 444.366 121.274 379 202.296 379C283.319 379 349 444.366 349 525Z" fill="#FD8C6E"/>
</g>
<defs>
<filter id="filter0_f_302_9" x="467.1" y="52.6" width="892.3" height="918.8" filterUnits="userSpaceOnUse" color-interpolation-filters="sRGB">
<feFlood flood-opacity="0" result="BackgroundImageFix"/>
<feBlend mode="normal" in="SourceGraphic" in2="BackgroundImageFix" result="shape"/>
<feGaussianBlur stdDeviation="138.2" result="effect1_foregroundBlur_302_9"/>
</filter>
<filter id="filter1_f_302_9" x="218.6" y="80.6" width="785.8" height="844.8" filterUnits="userSpaceOnUse" color-interpolation-filters="sRGB">
<feFlood flood-opacity="0" result="BackgroundImageFix"/>
<feBlend mode="normal" in="SourceGraphic" in2="BackgroundImageFix" result="shape"/>
<feGaussianBlur stdDeviation="138.2" result="effect1_foregroundBlur_302_9"/>
</filter>
<filter id="filter2_f_302_9" x="22.6" y="0.600006" width="785.8" height="844.8" filterUnits="userSpaceOnUse" color-interpolation-filters="sRGB">
<feFlood flood-opacity="0" result="BackgroundImageFix"/>
<feBlend mode="normal" in="SourceGraphic" in2="BackgroundImageFix" result="shape"/>
<feGaussianBlur stdDeviation="138.2" result="effect1_foregroundBlur_302_9"/>
</filter>
<filter id="filter3_f_302_9" x="-160.4" y="102.6" width="785.8" height="844.8" filterUnits="userSpaceOnUse" color-interpolation-filters="sRGB">
<feFlood flood-opacity="0" result="BackgroundImageFix"/>
<feBlend mode="normal" in="SourceGraphic" in2="BackgroundImageFix" result="shape"/>
<feGaussianBlur stdDeviation="138.2" result="effect1_foregroundBlur_302_9"/>
</filter>
</defs>
</svg>
